<svg width="72" height="72" viewBox="0 0 72 72" fill="none" xmlns="http://www.w3.org/2000/svg">
<path d="M7.62939e-06 72L72 72L72 2.25001L7.62939e-06 72Z" fill="#1A1515"/>
<path d="M0.5 70.8195V0.515869L70.8036 2.71286L0.5 70.8195Z" fill="white" stroke="#1A1515"/>
<path fill-rule="evenodd" clip-rule="evenodd" d="M20.9548 33.7492C21.0004 34.2996 21.4835 34.7089 22.0339 34.6633C22.5843 34.6177 22.9936 34.1346 22.948 33.5842L21.9842 21.9435L33.753 20.9216C34.3032 20.8738 34.7106 20.3891 34.6628 19.8388C34.615 19.2886 34.1302 18.8813 33.58 18.9291L21.8191 19.9503L21.0161 10.2509C20.9705 9.70048 20.4873 9.29124 19.9369 9.33681C19.3865 9.38238 18.9773 9.86551 19.0229 10.4159L19.8266 20.1233L10.2468 20.955C9.6966 21.0028 9.28929 21.4876 9.33706 22.0378C9.38483 22.588 9.8696 22.9953 10.4198 22.9476L19.9917 22.1165L20.9548 33.7492Z" fill="#1A1515"/>
</svg>
