<svg width="24" height="24" viewBox="0 0 24 24" fill="none" xmlns="http://www.w3.org/2000/svg">
<path fill-rule="evenodd" clip-rule="evenodd" d="M1.36676 11.2261C1.1289 11.4207 0.993735 11.7139 1.00022 12.0211C1.00671 12.3284 1.15413 12.6156 1.4 12.8L13.4 21.8C13.8418 22.1314 14.4686 22.0419 14.8 21.6C15.1314 21.1582 15.0418 20.5314 14.6 20.2L4.99996 13H22C22.5523 13 23 12.5523 23 12C23 11.4477 22.5523 11 22 11H4.80145L13.6332 3.77399C14.0607 3.42426 14.1237 2.79424 13.774 2.36679C13.4242 1.93935 12.7942 1.87635 12.3668 2.22607L1.36676 11.2261Z" fill="#1A1515"/>
</svg>
