<svg width="14" height="14" viewBox="0 0 14 14" fill="none" xmlns="http://www.w3.org/2000/svg">
<path fill-rule="evenodd" clip-rule="evenodd" d="M11.1002 2.78336C11.3487 2.45199 11.2816 1.98188 10.9502 1.73336C10.6188 1.48483 10.1487 1.55199 9.90019 1.88336L6.73209 6.10751L2.80646 2.91794C2.48499 2.65674 2.01263 2.7056 1.75143 3.02708C1.49023 3.34856 1.5391 3.82091 1.86058 4.08211L5.83142 7.30841L2.9002 11.2167C2.65167 11.5481 2.71883 12.0182 3.0502 12.2667C3.38157 12.5152 3.85167 12.4481 4.1002 12.1167L6.99646 8.25501L11.1939 11.6654C11.5154 11.9266 11.9877 11.8777 12.2489 11.5563C12.5101 11.2348 12.4612 10.7624 12.1398 10.5012L7.89714 7.05411L11.1002 2.78336Z" fill="#1A1515"/>
</svg>
