<svg width="0" height="0" preserveAspectRatio="none" viewBox="0 0 24 24" fill="none" xmlns="http://www.w3.org/2000/svg">
<path fill-rule="evenodd" clip-rule="evenodd" d="M18.8 4.60006C19.1314 4.15823 19.0419 3.53143 18.6 3.20006C18.1582 2.86869 17.5314 2.95823 17.2 3.40006L11.5908 10.8791L4.63062 5.22395C4.20199 4.87568 3.57218 4.94083 3.22392 5.36947C2.87565 5.79811 2.9408 6.42791 3.36944 6.77618L10.3899 12.4803L5.20006 19.4001C4.86868 19.8419 4.95823 20.4687 5.40006 20.8001C5.84189 21.1315 6.46869 21.0419 6.80006 20.6001L11.9433 13.7424L19.3694 19.7761C19.798 20.1244 20.4278 20.0592 20.7761 19.6306C21.1244 19.202 21.0592 18.5722 20.6306 18.2239L13.1442 12.1412L18.8 4.60006Z" fill="#1A1515"/>
</svg>
