<svg width="20" height="20" viewBox="0 0 20 20" fill="none" xmlns="http://www.w3.org/2000/svg">
<mask id="path-1-inside-1" fill="white">
<path fill-rule="evenodd" clip-rule="evenodd" d="M10.0002 19.1666C10.9927 19.1666 16.6668 12.9327 16.6668 7.24998C16.6668 3.70615 13.6821 0.833313 10.0002 0.833313C6.31826 0.833313 3.3335 3.70615 3.3335 7.24998C3.3335 12.9327 9.00766 19.1666 10.0002 19.1666ZM10.1236 8.31963C10.6691 8.31963 11.1112 7.65637 11.1112 7.13135C11.1112 6.60634 10.6691 6.18074 10.1236 6.18074C9.57812 6.18074 8.88902 6.60634 8.88902 7.13135C8.88902 7.65637 9.57812 8.31963 10.1236 8.31963Z"/>
</mask>
<path d="M14.6668 7.24998C14.6668 9.49997 13.507 12.0744 12.0518 14.2148C11.3438 15.2561 10.6197 16.1147 10.0445 16.6914C9.75328 16.9834 9.53231 17.1707 9.39676 17.2691C9.32733 17.3195 9.31716 17.3195 9.35905 17.299C9.38177 17.2879 9.44113 17.2602 9.53123 17.2331C9.6156 17.2078 9.78036 17.1666 10.0002 17.1666V21.1666C10.5182 21.1666 10.9276 20.9847 11.1181 20.8915C11.3522 20.7769 11.5657 20.6374 11.7464 20.5063C12.1111 20.2415 12.4963 19.8975 12.8765 19.5162C13.6444 18.7464 14.525 17.6914 15.3596 16.4639C16.9895 14.0666 18.6668 10.6827 18.6668 7.24998H14.6668ZM10.0002 2.83331C12.6502 2.83331 14.6668 4.88208 14.6668 7.24998H18.6668C18.6668 2.53022 14.7139 -1.16669 10.0002 -1.16669V2.83331ZM5.3335 7.24998C5.3335 4.88208 7.3501 2.83331 10.0002 2.83331V-1.16669C5.28643 -1.16669 1.3335 2.53022 1.3335 7.24998H5.3335ZM10.0002 17.1666C10.22 17.1666 10.3847 17.2078 10.4691 17.2331C10.5592 17.2602 10.6186 17.2879 10.6413 17.299C10.6832 17.3195 10.673 17.3195 10.6036 17.2691C10.468 17.1707 10.247 16.9834 9.95578 16.6914C9.38059 16.1147 8.65657 15.2561 7.94856 14.2148C6.49328 12.0744 5.3335 9.49997 5.3335 7.24998H1.3335C1.3335 10.6827 3.01079 14.0666 4.64072 16.4639C5.47531 17.6914 6.35593 18.7464 7.12378 19.5162C7.50405 19.8975 7.8892 20.2415 8.25393 20.5063C8.43464 20.6374 8.64814 20.7769 8.88219 20.8915C9.07269 20.9847 9.48209 21.1666 10.0002 21.1666V17.1666ZM9.11124 7.13135C9.11124 6.9908 9.13875 6.8966 9.15635 6.84869C9.17512 6.79763 9.20084 6.7494 9.23903 6.69995C9.28076 6.6459 9.5571 6.31963 10.1236 6.31963V10.3196C11.2355 10.3196 12.0057 9.66172 12.4049 9.14479C12.8124 8.61706 13.1112 7.89977 13.1112 7.13135H9.11124ZM10.1236 8.18074C9.63722 8.18074 9.11124 7.78227 9.11124 7.13135H13.1112C13.1112 5.43041 11.7009 4.18074 10.1236 4.18074V8.18074ZM10.889 7.13135C10.889 7.45154 10.7817 7.69638 10.6875 7.84299C10.5976 7.98278 10.5076 8.05562 10.4654 8.08576C10.42 8.11829 10.3811 8.13649 10.3451 8.14875C10.3116 8.16015 10.2385 8.18074 10.1236 8.18074V4.18074C9.38553 4.18074 8.67674 4.44719 8.13806 4.83257C7.62982 5.19617 6.88902 5.96164 6.88902 7.13135H10.889ZM10.1236 6.31963C10.3793 6.31963 10.5414 6.39224 10.5922 6.41756C10.6523 6.44746 10.6791 6.47213 10.6887 6.48139C10.6978 6.49012 10.7288 6.52087 10.7667 6.59142C10.799 6.65135 10.889 6.83864 10.889 7.13135H6.88902C6.88902 8.17285 7.49284 8.95719 7.91482 9.36334C8.34849 9.78075 9.12907 10.3196 10.1236 10.3196V6.31963Z" fill="#1A1515" mask="url(#path-1-inside-1)"/>
</svg>
