<svg width="125" height="125" viewBox="0 0 125 125" fill="none" xmlns="http://www.w3.org/2000/svg">
<path d="M80.5981 14.6L110.383 66.1887C111.078 67.3935 110.529 68.9535 109.22 69.4716C104.814 71.2151 96.9178 74.4905 91.5588 77.5845C84.6298 81.585 75.3028 89.1178 73.3164 90.7413C73.1182 90.9033 72.9094 91.0239 72.67 91.1145C70.2708 92.023 59.0837 96.334 52.1547 100.335C46.7957 103.429 40.0108 108.629 36.2981 111.573C35.195 112.448 33.5692 112.144 32.8736 110.939L3.08885 59.35C2.53863 58.397 2.75756 57.2023 3.60464 56.5247C7.07545 53.7482 14.4188 48.0414 20.0771 44.7745C26.8843 40.8444 37.9581 36.573 40.3736 35.6583C40.7645 35.5103 41.1145 35.3082 41.4381 35.0437C43.438 33.4092 52.674 25.9547 59.4812 22.0245C65.1395 18.7577 73.7535 15.2516 77.8934 13.634C78.9038 13.2393 80.0479 13.647 80.5981 14.6Z" fill="#EDEDED" stroke="#17120F" stroke-width="1.5"/>
<rect x="15.4835" y="59.6488" width="12.5" height="7.5" rx="1.25" transform="rotate(-30 15.4835 59.6488)" fill="#F4F4F4" stroke="#17120F" stroke-width="1.5"/>
<rect x="32.6905" y="93.5283" width="12.5" height="7.5" rx="1.25" transform="rotate(-30 32.6905 93.5283)" fill="#C2BEB6" stroke="#17120F" stroke-width="1.5"/>
<rect x="29.8125" y="67.8419" width="17.13" height="17.5777" transform="rotate(-30 29.8125 67.8419)" fill="#F4F4F4"/>
<mask id="path-6-inside-1" fill="white">
<path fill-rule="evenodd" clip-rule="evenodd" d="M40.1394 61.6041C40.6041 61.3358 40.8493 60.7364 41.314 60.4681L41.6347 60.283C42.0675 60.0331 42.6509 60.0805 43.0837 59.8307V59.8307C43.1341 59.8016 43.1806 59.7683 43.2229 59.7316C43.5188 59.4749 43.7124 59.0834 44.0517 58.8875L44.1014 58.8588C44.6802 58.5246 45.4202 58.7229 45.7544 59.3017V59.3017C45.9569 59.6525 45.9127 60.1043 46.02 60.4949C46.0405 60.5693 46.0707 60.6425 46.1112 60.7127V60.7127C46.3877 61.1916 46.9967 61.4534 47.2731 61.9323L47.3968 62.1465C47.6651 62.6111 47.5778 63.2528 47.846 63.7175V63.7175V63.7175C48.1143 64.1821 48.7137 64.4273 48.9819 64.892L49.0726 65.049C49.3491 65.5279 49.2713 66.1862 49.5478 66.665V66.665V66.665C49.8243 67.1439 50.4332 67.4057 50.7097 67.8846L50.8334 68.0988C51.1016 68.5634 51.0143 69.2051 51.2826 69.6698V69.6698V69.6698C51.5509 70.1344 52.1503 70.3797 52.4185 70.8443L52.6038 71.1652C52.8536 71.5979 52.8062 72.1814 53.056 72.6142V72.6142C53.0814 72.6581 53.1099 72.699 53.1411 72.7368C53.3992 73.0495 53.8074 73.2499 54.0101 73.601L54.0395 73.6519C54.3855 74.2512 54.1802 75.0176 53.5808 75.3636V75.3636C53.2175 75.5734 52.747 75.5259 52.3454 75.6472C52.2787 75.6674 52.213 75.6955 52.1498 75.732V75.732C51.6709 76.0085 51.4091 76.6175 50.9302 76.8939L50.7161 77.0176C50.2514 77.2859 49.6097 77.1986 49.1451 77.4668V77.4668V77.4668C48.6804 77.7351 48.4352 78.3345 47.9705 78.6027L47.8136 78.6933C47.3347 78.9698 46.6765 78.8921 46.1976 79.1686V79.1686V79.1686C45.7187 79.445 45.4569 80.054 44.978 80.3305L44.7636 80.4543C44.299 80.7225 43.6573 80.6352 43.1926 80.9035V80.9035V80.9035C42.728 81.1717 42.4827 81.7711 42.0181 82.0394L41.6973 82.2246C41.2646 82.4744 40.6811 82.427 40.2483 82.6768V82.6768C40.1979 82.706 40.1514 82.7392 40.1091 82.7759C39.8132 83.0327 39.6196 83.4241 39.2803 83.62L39.25 83.6375C38.6605 83.9779 37.9068 83.7759 37.5664 83.1864V83.1864C37.3555 82.8211 37.41 82.3439 37.282 81.9419C37.2629 81.882 37.2371 81.8231 37.2043 81.7662V81.7662C36.9334 81.2971 36.33 81.0449 36.0592 80.5758L35.9352 80.3609C35.6669 79.8963 35.7542 79.2546 35.4859 78.79V78.79V78.79C35.2177 78.3254 34.6183 78.0801 34.3501 77.6155L34.2263 77.4012C33.9499 76.9223 34.0276 76.2641 33.7511 75.7852V75.7852V75.7852C33.4747 75.3064 32.8657 75.0446 32.5893 74.5657L32.4986 74.4086C32.2303 73.944 32.3176 73.3023 32.0494 72.8377V72.8377V72.8377C31.7811 72.373 31.1817 72.1278 30.9135 71.6632L30.7898 71.4489C30.5133 70.97 30.591 70.3118 30.3146 69.8329V69.8329C30.2741 69.7627 30.2258 69.6999 30.1716 69.6451C29.8869 69.3568 29.4736 69.1692 29.271 68.8184V68.8184C28.9369 68.2396 29.1352 67.4995 29.7139 67.1654V67.1654C30.0648 66.9629 30.5166 67.007 30.9072 66.8998C30.9816 66.8793 31.0548 66.8491 31.125 66.8086V66.8086C31.6038 66.5321 31.8656 65.9231 32.3445 65.6466L32.5587 65.523C33.0234 65.2547 33.6651 65.342 34.1297 65.0738V65.0738V65.0738C34.5944 64.8055 34.8396 64.2061 35.3042 63.9378L35.5184 63.8142C35.9973 63.5377 36.6556 63.6155 37.1344 63.339V63.339V63.339C37.6133 63.0625 37.8751 62.4535 38.354 62.1771L38.5684 62.0533C39.0331 61.785 39.6748 61.8723 40.1394 61.6041V61.6041V61.6041Z"/>
</mask>
<path d="M38.5684 62.0533L39.3184 63.3523L38.5684 62.0533ZM32.5587 65.523L31.8087 64.2239L32.5587 65.523ZM37.282 81.9419L35.8527 82.3971L37.282 81.9419ZM39.25 83.6375L40 84.9366L39.25 83.6375ZM40.1091 82.7759L41.0921 83.9089L40.1091 82.7759ZM39.2803 83.62L40.0303 84.9191L39.2803 83.62ZM41.6973 82.2246L40.9473 80.9255L41.6973 82.2246ZM42.0181 82.0394L41.2681 80.7403L42.0181 82.0394ZM44.978 80.3305L44.228 79.0314L44.978 80.3305ZM52.3454 75.6472L51.9118 74.2113L52.3454 75.6472ZM54.0395 73.6519L52.7404 74.4019L54.0395 73.6519ZM53.1411 72.7368L54.2979 71.7819L53.1411 72.7368ZM54.0101 73.601L55.3091 72.851L54.0101 73.601ZM32.3445 65.6466L31.5945 64.3476L32.3445 65.6466ZM44.7636 80.4543L45.5136 81.7533L44.7636 80.4543ZM38.354 62.1771L39.104 63.4761L38.354 62.1771ZM43.2229 59.7316L42.2399 58.5986L43.2229 59.7316ZM46.02 60.4949L44.5736 60.8922L46.02 60.4949ZM49.0726 65.049L47.7736 65.799L49.0726 65.049ZM40.8847 58.9839L40.564 59.1691L42.064 61.7672L42.3847 61.582L40.8847 58.9839ZM42.2399 58.5986C42.2695 58.5729 42.301 58.5505 42.3337 58.5317L43.8337 61.1297C43.9673 61.0526 44.0917 60.9637 44.2059 60.8646L42.2399 58.5986ZM43.3514 57.5597L43.3017 57.5884L44.8017 60.1865L44.8514 60.1578L43.3514 57.5597ZM47.4103 59.9627C47.4341 60.0041 47.4532 60.0495 47.4665 60.0977L44.5736 60.8922C44.6277 61.0891 44.7073 61.281 44.8122 61.4627L47.4103 59.9627ZM48.6959 61.3965L48.5722 61.1823L45.9741 62.6823L46.0978 62.8965L48.6959 61.3965ZM50.3716 64.299L50.281 64.142L47.6829 65.642L47.7736 65.799L50.3716 64.299ZM52.1324 67.3488L52.0088 67.1346L49.4107 68.6346L49.5343 68.8488L52.1324 67.3488ZM53.9028 70.4152L53.7176 70.0943L51.1195 71.5943L51.3047 71.9152L53.9028 70.4152ZM54.2979 71.7819C54.3195 71.8082 54.3386 71.8358 54.3551 71.8642L51.757 73.3642C51.8241 73.4805 51.9002 73.5899 51.9842 73.6916L54.2979 71.7819ZM55.3385 72.9019L55.3091 72.851L52.7111 74.351L52.7404 74.4019L55.3385 72.9019ZM52.8998 77.0311C52.8626 77.0525 52.8221 77.0702 52.7791 77.0832L51.9118 74.2113C51.7353 74.2646 51.5634 74.3385 51.3998 74.433L52.8998 77.0311ZM51.4661 78.3166L51.6802 78.193L50.1802 75.5949L49.9661 75.7186L51.4661 78.3166ZM48.5636 79.9924L48.7205 79.9018L47.2205 77.3037L47.0636 77.3943L48.5636 79.9924ZM45.5136 81.7533L45.728 81.6295L44.228 79.0314L44.0136 79.1552L45.5136 81.7533ZM42.4473 83.5236L42.7681 83.3384L41.2681 80.7403L40.9473 80.9255L42.4473 83.5236ZM41.0921 83.9089C41.0625 83.9346 41.031 83.957 40.9983 83.9759L39.4983 81.3778C39.3648 81.4549 39.2403 81.5438 39.1261 81.6429L41.0921 83.9089ZM40 84.9366L40.0303 84.9191L38.5303 82.321L38.5 82.3385L40 84.9366ZM35.9052 82.5162C35.8839 82.4793 35.8662 82.4394 35.8527 82.3971L38.7113 81.4867C38.6596 81.3246 38.5903 81.1668 38.5033 81.0162L35.9052 82.5162ZM34.6361 81.1109L34.7601 81.3258L37.3582 79.8258L37.2342 79.6109L34.6361 81.1109ZM32.9273 78.1512L33.051 78.3655L35.6491 76.8655L35.5254 76.6512L32.9273 78.1512ZM31.1995 75.1586L31.2902 75.3157L33.8883 73.8157L33.7976 73.6586L31.1995 75.1586ZM29.4907 72.1989L29.6145 72.4132L32.2125 70.9132L32.0888 70.6989L29.4907 72.1989ZM29.1043 70.6991C29.0692 70.6635 29.0394 70.6243 29.0155 70.5829L31.6136 69.0829C31.5087 68.9012 31.3824 68.7364 31.2389 68.5911L29.1043 70.6991ZM30.375 65.5095C30.4163 65.4856 30.4617 65.4665 30.5099 65.4533L31.3044 68.3462C31.5014 68.2921 31.6932 68.2125 31.875 68.1076L30.375 65.5095ZM31.8087 64.2239L31.5945 64.3476L33.0945 66.9457L33.3087 66.822L31.8087 64.2239ZM34.7684 62.5152L34.5542 62.6388L36.0542 65.2369L36.2684 65.1132L34.7684 62.5152ZM37.8184 60.7542L37.604 60.878L39.104 63.4761L39.3184 63.3523L37.8184 60.7542ZM39.3184 63.3523C39.271 63.3797 39.2613 63.3637 39.596 63.309C39.8145 63.2733 40.3774 63.1987 40.8894 62.9031L39.3894 60.305C39.4368 60.2777 39.4465 60.2936 39.1118 60.3483C38.8933 60.3841 38.3305 60.4586 37.8184 60.7542L39.3184 63.3523ZM36.2684 65.1132C36.2368 65.1315 36.2446 65.1136 36.5847 65.0542C36.8131 65.0143 37.374 64.9327 37.8844 64.638L36.3844 62.0399C36.4161 62.0217 36.4083 62.0395 36.0682 62.099C35.8397 62.1389 35.2789 62.2204 34.7684 62.5152L36.2684 65.1132ZM33.3087 66.822C33.2613 66.8494 33.2516 66.8334 33.5863 66.7787C33.8048 66.743 34.3677 66.6684 34.8797 66.3728L33.3797 63.7747C33.4271 63.7474 33.4368 63.7633 33.1021 63.818C32.8836 63.8538 32.3208 63.9283 31.8087 64.2239L33.3087 66.822ZM30.4639 68.4644C30.37 68.5187 30.3211 68.507 30.4958 68.4834C30.5345 68.4782 30.5748 68.4734 30.6293 68.4668C30.6799 68.4608 30.7436 68.4531 30.8093 68.4441C30.9395 68.4262 31.1149 68.3983 31.3044 68.3462L30.5099 65.4533C30.5042 65.4549 30.4766 65.4616 30.4012 65.472C30.3642 65.4771 30.3245 65.4819 30.2716 65.4882C30.2227 65.4941 30.1596 65.5016 30.0955 65.5103C29.8589 65.5421 29.4087 65.6096 28.9639 65.8664L30.4639 68.4644ZM32.0888 70.6989C32.1071 70.7305 32.0892 70.7227 32.0298 70.3827C31.9898 70.1542 31.9083 69.5934 31.6136 69.0829L29.0155 70.5829C28.9973 70.5513 29.0151 70.5591 29.0746 70.8992C29.1145 71.1276 29.196 71.6884 29.4907 72.1989L32.0888 70.6989ZM33.7976 73.6586C33.825 73.706 33.809 73.7157 33.7543 73.381C33.7186 73.1625 33.644 72.5997 33.3484 72.0877L30.7503 73.5877C30.723 73.5403 30.7389 73.5306 30.7936 73.8653C30.8294 74.0837 30.9039 74.6466 31.1995 75.1586L33.7976 73.6586ZM35.0502 75.0352C34.7555 74.5248 34.3106 74.1738 34.1327 74.025C33.8679 73.8034 33.8701 73.7841 33.8883 73.8157L31.2902 75.3157C31.585 75.8262 32.0299 76.1772 32.2078 76.326C32.4726 76.5475 32.4703 76.5669 32.4521 76.5352L35.0502 75.0352ZM35.5254 76.6512C35.5436 76.6828 35.5258 76.675 35.4663 76.335C35.4264 76.1065 35.3449 75.5457 35.0502 75.0352L32.4521 76.5352C32.4338 76.5036 32.4517 76.5114 32.5111 76.8515C32.5511 77.0799 32.6326 77.6407 32.9273 78.1512L35.5254 76.6512ZM36.785 78.04C36.4894 77.528 36.0392 77.182 35.8679 77.0418C35.6054 76.8271 35.6217 76.8181 35.6491 76.8655L33.051 78.3655C33.3467 78.8775 33.7968 79.2235 33.9681 79.3637C34.2306 79.5784 34.2143 79.5874 34.1869 79.54L36.785 78.04ZM37.2342 79.6109C37.2616 79.6583 37.2456 79.668 37.1909 79.3333C37.1551 79.1149 37.0806 78.552 36.785 78.04L34.1869 79.54C34.1595 79.4926 34.1755 79.4829 34.2302 79.8176C34.266 80.0361 34.3405 80.5989 34.6361 81.1109L37.2342 79.6109ZM38.5033 81.0162C38.2082 80.5051 37.7599 80.1572 37.5864 80.014C37.3228 79.7965 37.334 79.7838 37.3582 79.8258L34.7601 81.3258C35.0552 81.8369 35.5036 82.1848 35.6771 82.328C35.9407 82.5455 35.9294 82.5582 35.9052 82.5162L38.5033 81.0162ZM38.8655 82.4364C38.9196 82.5302 38.9066 82.5789 38.8799 82.3793C38.8732 82.3289 38.8516 82.1468 38.8339 82.0301C38.8121 81.8859 38.7772 81.6938 38.7113 81.4867L35.8527 82.3971C35.8508 82.391 35.8571 82.4093 35.8677 82.479C35.8824 82.5763 35.8843 82.6117 35.9063 82.7765C35.9372 83.0074 36.0024 83.4773 36.2674 83.9364L38.8655 82.4364ZM38.5 82.3385C38.628 82.2646 38.7916 82.3085 38.8655 82.4364L36.2674 83.9364C37.022 85.2433 38.6931 85.6911 40 84.9366L38.5 82.3385ZM39.1261 81.6429C38.9739 81.775 38.8523 81.9089 38.7639 82.0121C38.6908 82.0973 38.5871 82.2261 38.5553 82.2645C38.437 82.4075 38.4487 82.3681 38.5303 82.321L40.0303 84.9191C40.4512 84.6761 40.7294 84.343 40.8667 84.1771C40.9626 84.0611 40.9841 84.0316 41.0411 83.9651C41.0828 83.9165 41.0964 83.9052 41.0921 83.9089L39.1261 81.6429ZM40.9473 80.9255C40.9831 80.9049 40.984 80.919 40.6798 80.9796C40.4758 81.0202 39.9668 81.1073 39.4983 81.3778L40.9983 83.9759C40.9626 83.9965 40.9617 83.9824 41.2658 83.9218C41.4698 83.8812 41.9788 83.7941 42.4473 83.5236L40.9473 80.9255ZM42.4426 79.6044C41.9306 79.9001 41.5846 80.3502 41.4444 80.5216C41.2297 80.7841 41.2207 80.7677 41.2681 80.7403L42.7681 83.3384C43.2801 83.0428 43.6261 82.5926 43.7663 82.4213C43.9811 82.1588 43.99 82.1751 43.9426 82.2025L42.4426 79.6044ZM45.4476 77.8695C44.9371 78.1642 44.5861 78.6092 44.4373 78.7871C44.2158 79.0519 44.1964 79.0497 44.228 79.0314L45.728 81.6295C46.2385 81.3348 46.5895 80.8898 46.7383 80.7119C46.9599 80.4471 46.9792 80.4493 46.9476 80.4676L45.4476 77.8695ZM52.8308 74.0646C52.9194 74.0135 52.9626 74.0264 52.7718 74.0528C52.7288 74.0587 52.6866 74.064 52.6273 74.0715C52.5726 74.0785 52.5054 74.0872 52.435 74.0977C52.2962 74.1185 52.1112 74.151 51.9118 74.2113L52.7791 77.0832C52.778 77.0835 52.7845 77.0815 52.8017 77.0779C52.8191 77.0744 52.8434 77.07 52.8785 77.0648C52.9951 77.0473 53.0021 77.0495 53.1831 77.0244C53.4188 76.9918 53.879 76.9236 54.3308 76.6627L52.8308 74.0646ZM52.7404 74.4019C52.6722 74.2838 52.7127 74.1328 52.8308 74.0646L54.3308 76.6627C55.6476 75.9024 56.0988 74.2187 55.3385 72.9019L52.7404 74.4019ZM51.9842 73.6916C52.1198 73.8558 52.259 73.9862 52.3676 74.0816C52.4639 74.1662 52.5869 74.2658 52.6359 74.3067C52.7906 74.4356 52.7551 74.4273 52.7111 74.351L55.3091 72.851C55.0624 72.4236 54.7214 72.1395 54.5568 72.0023C54.4461 71.9101 54.406 71.8791 54.3469 71.8272C54.3 71.786 54.2914 71.7741 54.2979 71.7819L51.9842 73.6916ZM51.3047 71.9152C51.2841 71.8794 51.2982 71.8785 51.3588 72.1827C51.3994 72.3867 51.4865 72.8957 51.757 73.3642L54.3551 71.8642C54.3757 71.8999 54.3616 71.9008 54.301 71.5967C54.2604 71.3927 54.1733 70.8837 53.9028 70.4152L51.3047 71.9152ZM49.9836 70.4198C50.2792 70.9318 50.7294 71.2778 50.9007 71.418C51.1632 71.6328 51.1469 71.6417 51.1195 71.5943L53.7176 70.0943C53.4219 69.5823 52.9717 69.2363 52.8004 69.0961C52.5379 68.8814 52.5543 68.8724 52.5816 68.9198L49.9836 70.4198ZM48.2488 67.415C48.5435 67.9255 48.9884 68.2765 49.1663 68.4253C49.4311 68.6469 49.4289 68.6662 49.4107 68.6346L52.0088 67.1346C51.714 66.6241 51.2691 66.2731 51.0912 66.1243C50.8264 65.9028 50.8286 65.8834 50.8468 65.915L48.2488 67.415ZM46.547 64.4675C46.8426 64.9795 47.2928 65.3255 47.4641 65.4657C47.7266 65.6804 47.7103 65.6894 47.6829 65.642L50.281 64.142C49.9853 63.6299 49.5352 63.284 49.3638 63.1438C49.1014 62.929 49.1177 62.9201 49.1451 62.9675L46.547 64.4675ZM31.875 68.1076C32.3854 67.8129 32.7364 67.3679 32.8853 67.19C33.1068 66.9252 33.1261 66.9274 33.0945 66.9457L31.5945 64.3476C31.084 64.6423 30.733 65.0873 30.5842 65.2652C30.3627 65.53 30.3433 65.5278 30.375 65.5095L31.875 68.1076ZM46.0978 62.8965C46.0704 62.8491 46.0864 62.8394 46.1411 63.1741C46.1768 63.3926 46.2514 63.9554 46.547 64.4675L49.1451 62.9675C49.1724 63.0149 49.1565 63.0245 49.1018 62.6898C49.066 62.4714 48.9915 61.9085 48.6959 61.3965L46.0978 62.8965ZM44.0136 79.1552C44.061 79.1278 44.0707 79.1438 43.736 79.1985C43.5175 79.2343 42.9547 79.3088 42.4426 79.6044L43.9426 82.2025C43.8952 82.2299 43.8855 82.2139 44.2202 82.1592C44.4387 82.1235 45.0016 82.0489 45.5136 81.7533L44.0136 79.1552ZM44.8122 61.4627C45.1069 61.9732 45.5518 62.3242 45.7297 62.473C45.9946 62.6945 45.9924 62.7139 45.9741 62.6823L48.5722 61.1823C48.2774 60.6718 47.8325 60.3208 47.6546 60.172C47.3898 59.9504 47.392 59.9311 47.4103 59.9627L44.8122 61.4627ZM47.0636 77.3943C47.0952 77.376 47.0875 77.3939 46.7474 77.4533C46.5189 77.4933 45.9581 77.5748 45.4476 77.8695L46.9476 80.4676C46.916 80.4858 46.9237 80.468 47.2638 80.4085C47.4923 80.3686 48.0531 80.2871 48.5636 79.9924L47.0636 77.3943ZM31.2389 68.5911C31.1007 68.4512 30.9628 68.3393 30.859 68.2587C30.8066 68.218 30.7553 68.1795 30.7145 68.149C30.6706 68.1161 30.6381 68.0917 30.6072 68.0678C30.4676 67.9601 30.5158 67.9744 30.5701 68.0684L27.972 69.5684C28.2288 70.0132 28.5849 70.2966 28.7739 70.4425C28.8251 70.4821 28.876 70.5201 28.9154 70.5497C28.958 70.5816 28.99 70.6056 29.0195 70.6286C29.0796 70.6752 29.1001 70.6948 29.1043 70.6991L31.2389 68.5911ZM44.8514 60.1578C44.7127 60.2379 44.5354 60.1904 44.4553 60.0517L47.0534 58.5517C46.3051 57.2555 44.6476 56.8114 43.3514 57.5597L44.8514 60.1578ZM37.8844 64.638C38.3949 64.3433 38.7459 63.8984 38.8948 63.7205C39.1163 63.4556 39.1356 63.4578 39.104 63.4761L37.604 60.878C37.0935 61.1728 36.7425 61.6177 36.5937 61.7956C36.3722 62.0604 36.3528 62.0582 36.3844 62.0399L37.8844 64.638ZM49.5343 68.8488C49.507 68.8014 49.5229 68.7917 49.5777 69.1264C49.6134 69.3449 49.6879 69.9077 49.9836 70.4198L52.5816 68.9198C52.609 68.9672 52.5931 68.9769 52.5383 68.6422C52.5026 68.4237 52.4281 67.8608 52.1324 67.3488L49.5343 68.8488ZM48.3951 76.1678C47.883 76.4634 47.537 76.9136 47.3968 77.0849C47.1821 77.3474 47.1731 77.3311 47.2205 77.3037L48.7205 79.9018C49.2326 79.6061 49.5786 79.156 49.7187 78.9846C49.9335 78.7221 49.9425 78.7385 49.8951 78.7659L48.3951 76.1678ZM44.2059 60.8646C44.3582 60.7325 44.4797 60.5986 44.5681 60.4954C44.6412 60.4102 44.7449 60.2814 44.7767 60.243C44.895 60.1 44.8833 60.1394 44.8017 60.1865L43.3017 57.5884C42.8808 57.8315 42.6026 58.1646 42.4654 58.3305C42.3694 58.4465 42.348 58.4759 42.2909 58.5424C42.2492 58.591 42.2356 58.6023 42.2399 58.5986L44.2059 60.8646ZM49.9661 75.7186C50.0135 75.6912 50.0231 75.7071 49.6885 75.7619C49.47 75.7976 48.9071 75.8721 48.3951 76.1678L49.8951 78.7659C49.8477 78.7932 49.838 78.7773 50.1727 78.7225C50.3911 78.6868 50.954 78.6123 51.4661 78.3166L49.9661 75.7186ZM33.3484 72.0877C33.0528 71.5756 32.6026 71.2297 32.4313 71.0895C32.1688 70.8747 32.1852 70.8658 32.2125 70.9132L29.6145 72.4132C29.9101 72.9252 30.3602 73.2712 30.5316 73.4114C30.794 73.6261 30.7777 73.6351 30.7503 73.5877L33.3484 72.0877ZM40.564 59.1691C40.0519 59.4647 39.7059 59.9149 39.5657 60.0863C39.351 60.3487 39.342 60.3324 39.3894 60.305L40.8894 62.9031C41.4015 62.6075 41.7475 62.1573 41.8876 61.9859C42.1024 61.7234 42.1114 61.7398 42.064 61.7672L40.564 59.1691ZM30.5701 68.0684C30.6501 68.207 30.6027 68.3844 30.4639 68.4644L28.9639 65.8664C27.6677 66.6147 27.2237 68.2722 27.972 69.5684L30.5701 68.0684ZM44.4553 60.0517C44.4011 59.9577 44.4128 59.9088 44.4363 60.0835C44.4415 60.1222 44.4464 60.1626 44.4529 60.2171C44.459 60.2676 44.4667 60.3313 44.4757 60.3971C44.4936 60.5272 44.5215 60.7026 44.5736 60.8922L47.4665 60.0977C47.4649 60.0919 47.4581 60.0644 47.4478 59.989C47.4427 59.952 47.4379 59.9123 47.4315 59.8594C47.4257 59.8105 47.4181 59.7474 47.4095 59.6832C47.3777 59.4467 47.3102 58.9965 47.0534 58.5517L44.4553 60.0517ZM34.8797 66.3728C35.3918 66.0772 35.7377 65.627 35.8779 65.4556C36.0927 65.1932 36.1016 65.2095 36.0542 65.2369L34.5542 62.6388C34.0422 62.9344 33.6962 63.3846 33.556 63.556C33.3413 63.8184 33.3323 63.8021 33.3797 63.7747L34.8797 66.3728ZM47.7736 65.799C47.7553 65.7674 47.7732 65.7752 47.8326 66.1153C47.8725 66.3437 47.954 66.9045 48.2488 67.415L50.8468 65.915C50.8651 65.9467 50.8472 65.9389 50.7878 65.5988C50.7479 65.3703 50.6664 64.8095 50.3716 64.299L47.7736 65.799ZM51.3998 74.433C50.8893 74.7277 50.5383 75.1726 50.3895 75.3506C50.168 75.6154 50.1486 75.6132 50.1802 75.5949L51.6802 78.193C52.1907 77.8983 52.5417 77.4533 52.6906 77.2754C52.9121 77.0106 52.9314 77.0128 52.8998 77.0311L51.3998 74.433ZM42.3847 61.582C42.349 61.6026 42.3481 61.5885 42.6522 61.5279C42.8562 61.4873 43.3652 61.4002 43.8337 61.1297L42.3337 58.5317C42.3694 58.511 42.3703 58.5251 42.0662 58.5857C41.8622 58.6263 41.3532 58.7134 40.8847 58.9839L42.3847 61.582Z" fill="#17120F" mask="url(#path-6-inside-1)"/>
<rect x="55.8125" y="34.8419" width="17.13" height="17.5777" transform="rotate(-30 55.8125 34.8419)" fill="#EBE3D6"/>
<mask id="path-10-inside-2" fill="white">
<path fill-rule="evenodd" clip-rule="evenodd" d="M66.1394 28.6041C66.6041 28.3358 66.8493 27.7364 67.3139 27.4681L67.6347 27.283C68.0675 27.0331 68.6509 27.0805 69.0837 26.8307V26.8307C69.1341 26.8016 69.1806 26.7683 69.2229 26.7316C69.5188 26.4749 69.7124 26.0834 70.0517 25.8875L70.1014 25.8588C70.6802 25.5246 71.4202 25.7229 71.7544 26.3017V26.3017C71.9569 26.6525 71.9127 27.1043 72.02 27.4949C72.0405 27.5693 72.0707 27.6425 72.1112 27.7127V27.7127C72.3877 28.1916 72.9967 28.4534 73.2731 28.9323L73.3968 29.1465C73.6651 29.6111 73.5778 30.2528 73.846 30.7175V30.7175V30.7175C74.1143 31.1821 74.7137 31.4273 74.9819 31.892L75.0726 32.049C75.3491 32.5279 75.2713 33.1862 75.5478 33.665V33.665V33.665C75.8243 34.1439 76.4332 34.4057 76.7097 34.8846L76.8334 35.0988C77.1016 35.5634 77.0143 36.2051 77.2826 36.6698V36.6698V36.6698C77.5509 37.1344 78.1503 37.3797 78.4185 37.8443L78.6038 38.1652C78.8536 38.5979 78.8062 39.1814 79.056 39.6142V39.6142C79.0814 39.6581 79.1099 39.699 79.1411 39.7368C79.3992 40.0495 79.8074 40.2499 80.0101 40.601L80.0395 40.6519C80.3855 41.2512 80.1802 42.0176 79.5808 42.3636V42.3636C79.2175 42.5734 78.747 42.5259 78.3454 42.6472C78.2787 42.6674 78.213 42.6955 78.1498 42.732V42.732C77.6709 43.0085 77.4091 43.6175 76.9302 43.8939L76.7161 44.0176C76.2514 44.2859 75.6097 44.1986 75.1451 44.4668V44.4668V44.4668C74.6804 44.7351 74.4352 45.3345 73.9705 45.6027L73.8136 45.6933C73.3347 45.9698 72.6765 45.8921 72.1976 46.1686V46.1686V46.1686C71.7187 46.445 71.4569 47.054 70.978 47.3305L70.7636 47.4543C70.299 47.7225 69.6573 47.6352 69.1926 47.9035V47.9035V47.9035C68.728 48.1717 68.4827 48.7711 68.0181 49.0394L67.6973 49.2246C67.2646 49.4744 66.6811 49.427 66.2483 49.6768V49.6768C66.1979 49.706 66.1514 49.7392 66.1091 49.7759C65.8132 50.0327 65.6196 50.4241 65.2803 50.62L65.25 50.6375C64.6605 50.9779 63.9068 50.7759 63.5664 50.1864V50.1864C63.3555 49.8211 63.41 49.3439 63.282 48.9419C63.2629 48.882 63.2371 48.8231 63.2043 48.7662V48.7662C62.9334 48.2971 62.33 48.0449 62.0592 47.5758L61.9352 47.3609C61.6669 46.8963 61.7542 46.2546 61.4859 45.79V45.79V45.79C61.2177 45.3254 60.6183 45.0801 60.3501 44.6155L60.2263 44.4012C59.9499 43.9223 60.0276 43.2641 59.7511 42.7852V42.7852V42.7852C59.4747 42.3064 58.8657 42.0446 58.5893 41.5657L58.4986 41.4086C58.2303 40.944 58.3176 40.3023 58.0494 39.8377V39.8377V39.8377C57.7811 39.373 57.1817 39.1278 56.9135 38.6632L56.7898 38.4489C56.5133 37.97 56.591 37.3118 56.3146 36.8329V36.8329C56.2741 36.7627 56.2258 36.6999 56.1716 36.6451C55.8869 36.3568 55.4736 36.1692 55.271 35.8184V35.8184C54.9369 35.2396 55.1352 34.4995 55.7139 34.1654V34.1654C56.0648 33.9629 56.5166 34.007 56.9072 33.8998C56.9816 33.8793 57.0548 33.8491 57.125 33.8086V33.8086C57.6038 33.5321 57.8656 32.9231 58.3445 32.6466L58.5587 32.523C59.0234 32.2547 59.6651 32.342 60.1297 32.0738V32.0738V32.0738C60.5944 31.8055 60.8396 31.2061 61.3042 30.9378L61.5184 30.8142C61.9973 30.5377 62.6556 30.6155 63.1344 30.339V30.339V30.339C63.6133 30.0625 63.8751 29.4535 64.354 29.1771L64.5684 29.0533C65.0331 28.785 65.6748 28.8723 66.1394 28.6041V28.6041V28.6041Z"/>
</mask>
<path d="M64.5684 29.0533L65.3184 30.3523L64.5684 29.0533ZM66.1091 49.7759L67.0921 50.9089L66.1091 49.7759ZM70.978 47.3305L71.728 48.6295L70.978 47.3305ZM78.3454 42.6472L77.9118 41.2113L78.3454 42.6472ZM79.1411 39.7368L80.2979 38.7819L79.1411 39.7368ZM80.0101 40.601L78.7111 41.351L80.0101 40.601ZM70.7636 47.4543L71.5136 48.7533L70.7636 47.4543ZM64.354 29.1771L65.104 30.4761L64.354 29.1771ZM76.7161 44.0176L75.9661 42.7186L76.7161 44.0176ZM72.02 27.4949L70.5736 27.8922L72.02 27.4949ZM76.9302 43.8939L77.6802 45.193L76.9302 43.8939ZM66.8847 25.9839L66.5639 26.1691L68.0639 28.7672L68.3847 28.582L66.8847 25.9839ZM68.2399 25.5986C68.2695 25.5729 68.301 25.5505 68.3337 25.5317L69.8337 28.1297C69.9673 28.0526 70.0917 27.9637 70.2059 27.8646L68.2399 25.5986ZM69.3514 24.5597L69.3017 24.5884L70.8017 27.1865L70.8514 27.1578L69.3514 24.5597ZM73.4103 26.9627C73.4341 27.0041 73.4532 27.0495 73.4665 27.0977L70.5736 27.8922C70.6277 28.0891 70.7073 28.281 70.8122 28.4627L73.4103 26.9627ZM74.6959 28.3965L74.5722 28.1823L71.9741 29.6823L72.0978 29.8965L74.6959 28.3965ZM76.3716 31.299L76.281 31.142L73.6829 32.642L73.7736 32.799L76.3716 31.299ZM78.1324 34.3488L78.0088 34.1346L75.4107 35.6346L75.5343 35.8488L78.1324 34.3488ZM79.9028 37.4152L79.7176 37.0943L77.1195 38.5943L77.3047 38.9152L79.9028 37.4152ZM80.2979 38.7819C80.3195 38.8082 80.3386 38.8358 80.3551 38.8642L77.757 40.3642C77.8241 40.4805 77.9002 40.5899 77.9842 40.6916L80.2979 38.7819ZM81.3385 39.9019L81.3091 39.851L78.7111 41.351L78.7404 41.4019L81.3385 39.9019ZM78.8998 44.0311C78.8626 44.0525 78.8221 44.0702 78.7791 44.0832L77.9118 41.2113C77.7353 41.2646 77.5634 41.3385 77.3998 41.433L78.8998 44.0311ZM77.4661 45.3166L77.6802 45.193L76.1802 42.5949L75.9661 42.7186L77.4661 45.3166ZM74.5636 46.9924L74.7205 46.9018L73.2205 44.3037L73.0636 44.3943L74.5636 46.9924ZM71.5136 48.7533L71.728 48.6295L70.228 46.0314L70.0136 46.1552L71.5136 48.7533ZM68.4473 50.5236L68.7681 50.3384L67.2681 47.7403L66.9473 47.9255L68.4473 50.5236ZM67.0921 50.9089C67.0625 50.9346 67.031 50.957 66.9983 50.9759L65.4983 48.3778C65.3648 48.4549 65.2403 48.5438 65.1261 48.6429L67.0921 50.9089ZM66 51.9366L66.0303 51.9191L64.5303 49.321L64.5 49.3385L66 51.9366ZM61.9052 49.5162C61.8839 49.4793 61.8662 49.4394 61.8527 49.3971L64.7113 48.4867C64.6596 48.3246 64.5903 48.1668 64.5033 48.0162L61.9052 49.5162ZM60.6361 48.1109L60.7601 48.3258L63.3582 46.8258L63.2342 46.6109L60.6361 48.1109ZM58.9273 45.1512L59.051 45.3655L61.6491 43.8655L61.5254 43.6512L58.9273 45.1512ZM57.1995 42.1586L57.2902 42.3157L59.8883 40.8157L59.7976 40.6586L57.1995 42.1586ZM55.4907 39.1989L55.6145 39.4132L58.2125 37.9132L58.0888 37.6989L55.4907 39.1989ZM55.1043 37.6991C55.0692 37.6635 55.0394 37.6243 55.0155 37.5829L57.6136 36.0829C57.5087 35.9012 57.3824 35.7364 57.2389 35.5911L55.1043 37.6991ZM56.375 32.5095C56.4163 32.4856 56.4617 32.4665 56.5099 32.4533L57.3044 35.3462C57.5014 35.2921 57.6932 35.2125 57.875 35.1076L56.375 32.5095ZM57.8087 31.2239L57.5945 31.3476L59.0945 33.9457L59.3087 33.822L57.8087 31.2239ZM60.7684 29.5152L60.5542 29.6388L62.0542 32.2369L62.2684 32.1132L60.7684 29.5152ZM63.8184 27.7542L63.604 27.878L65.104 30.4761L65.3184 30.3523L63.8184 27.7542ZM65.3184 30.3523C65.271 30.3797 65.2613 30.3637 65.596 30.309C65.8145 30.2733 66.3774 30.1987 66.8894 29.9031L65.3894 27.305C65.4368 27.2777 65.4465 27.2936 65.1118 27.3483C64.8933 27.3841 64.3305 27.4586 63.8184 27.7542L65.3184 30.3523ZM62.2684 32.1132C62.2368 32.1315 62.2446 32.1136 62.5847 32.0542C62.8131 32.0143 63.374 31.9327 63.8844 31.638L62.3844 29.0399C62.4161 29.0217 62.4083 29.0395 62.0682 29.099C61.8397 29.1389 61.2789 29.2204 60.7684 29.5152L62.2684 32.1132ZM59.3087 33.822C59.2613 33.8494 59.2516 33.8334 59.5863 33.7787C59.8048 33.743 60.3677 33.6684 60.8797 33.3728L59.3797 30.7747C59.4271 30.7474 59.4368 30.7633 59.1021 30.818C58.8836 30.8538 58.3208 30.9283 57.8087 31.2239L59.3087 33.822ZM56.4639 35.4644C56.37 35.5187 56.3211 35.507 56.4958 35.4834C56.5345 35.4782 56.5748 35.4734 56.6293 35.4668C56.6799 35.4608 56.7436 35.4531 56.8093 35.4441C56.9395 35.4262 57.1149 35.3983 57.3044 35.3462L56.5099 32.4533C56.5042 32.4549 56.4766 32.4616 56.4012 32.472C56.3642 32.4771 56.3245 32.4819 56.2716 32.4882C56.2227 32.4941 56.1596 32.5016 56.0955 32.5103C55.8589 32.5421 55.4087 32.6096 54.9639 32.8664L56.4639 35.4644ZM58.0888 37.6989C58.1071 37.7305 58.0892 37.7227 58.0298 37.3827C57.9898 37.1542 57.9083 36.5934 57.6136 36.0829L55.0155 37.5829C54.9973 37.5513 55.0151 37.5591 55.0746 37.8992C55.1145 38.1276 55.196 38.6884 55.4907 39.1989L58.0888 37.6989ZM59.7976 40.6586C59.825 40.706 59.809 40.7157 59.7543 40.381C59.7186 40.1625 59.644 39.5997 59.3484 39.0877L56.7503 40.5877C56.723 40.5403 56.7389 40.5306 56.7936 40.8653C56.8294 41.0837 56.9039 41.6466 57.1995 42.1586L59.7976 40.6586ZM61.0502 42.0352C60.7555 41.5248 60.3106 41.1738 60.1327 41.025C59.8679 40.8034 59.8701 40.7841 59.8883 40.8157L57.2902 42.3157C57.585 42.8262 58.0299 43.1772 58.2078 43.326C58.4726 43.5475 58.4703 43.5669 58.4521 43.5352L61.0502 42.0352ZM61.5254 43.6512C61.5436 43.6828 61.5258 43.675 61.4663 43.335C61.4264 43.1065 61.3449 42.5457 61.0502 42.0352L58.4521 43.5352C58.4338 43.5036 58.4517 43.5114 58.5111 43.8515C58.5511 44.0799 58.6326 44.6407 58.9273 45.1512L61.5254 43.6512ZM62.785 45.04C62.4894 44.528 62.0392 44.182 61.8679 44.0418C61.6054 43.8271 61.6217 43.8181 61.6491 43.8655L59.051 45.3655C59.3467 45.8775 59.7968 46.2235 59.9681 46.3637C60.2306 46.5784 60.2143 46.5874 60.1869 46.54L62.785 45.04ZM63.2342 46.6109C63.2616 46.6583 63.2456 46.668 63.1909 46.3333C63.1551 46.1149 63.0806 45.552 62.785 45.04L60.1869 46.54C60.1595 46.4926 60.1755 46.4829 60.2302 46.8176C60.266 47.0361 60.3405 47.5989 60.6361 48.1109L63.2342 46.6109ZM64.5033 48.0162C64.2082 47.5051 63.7599 47.1572 63.5864 47.014C63.3228 46.7965 63.334 46.7838 63.3582 46.8258L60.7601 48.3258C61.0552 48.8369 61.5036 49.1848 61.6771 49.328C61.9407 49.5455 61.9294 49.5582 61.9052 49.5162L64.5033 48.0162ZM64.8655 49.4364C64.9196 49.5302 64.9066 49.5789 64.8799 49.3793C64.8732 49.3289 64.8516 49.1468 64.8339 49.0301C64.8121 48.8859 64.7772 48.6938 64.7113 48.4867L61.8527 49.3971C61.8508 49.391 61.8571 49.4093 61.8677 49.479C61.8824 49.5763 61.8843 49.6117 61.9063 49.7765C61.9372 50.0074 62.0024 50.4773 62.2674 50.9364L64.8655 49.4364ZM64.5 49.3385C64.628 49.2646 64.7916 49.3085 64.8655 49.4364L62.2674 50.9364C63.022 52.2433 64.6931 52.6911 66 51.9366L64.5 49.3385ZM65.1261 48.6429C64.9739 48.775 64.8523 48.9089 64.7639 49.0121C64.6908 49.0973 64.5871 49.2261 64.5553 49.2645C64.437 49.4075 64.4487 49.3681 64.5303 49.321L66.0303 51.9191C66.4512 51.6761 66.7294 51.343 66.8667 51.1771C66.9626 51.0611 66.9841 51.0316 67.0411 50.9651C67.0828 50.9165 67.0964 50.9052 67.0921 50.9089L65.1261 48.6429ZM66.9473 47.9255C66.9831 47.9049 66.984 47.919 66.6798 47.9796C66.4758 48.0202 65.9668 48.1073 65.4983 48.3778L66.9983 50.9759C66.9626 50.9965 66.9617 50.9824 67.2658 50.9218C67.4698 50.8812 67.9788 50.7941 68.4473 50.5236L66.9473 47.9255ZM68.4426 46.6044C67.9306 46.9001 67.5846 47.3502 67.4444 47.5216C67.2297 47.7841 67.2207 47.7677 67.2681 47.7403L68.7681 50.3384C69.2801 50.0428 69.6261 49.5926 69.7663 49.4213C69.9811 49.1588 69.99 49.1751 69.9426 49.2025L68.4426 46.6044ZM71.4476 44.8695C70.9371 45.1642 70.5861 45.6092 70.4373 45.7871C70.2158 46.0519 70.1964 46.0497 70.228 46.0314L71.728 48.6295C72.2385 48.3348 72.5895 47.8898 72.7383 47.7119C72.9599 47.4471 72.9792 47.4493 72.9476 47.4676L71.4476 44.8695ZM78.8308 41.0646C78.9194 41.0135 78.9626 41.0264 78.7718 41.0528C78.7288 41.0587 78.6866 41.064 78.6273 41.0715C78.5726 41.0785 78.5054 41.0872 78.435 41.0977C78.2962 41.1185 78.1112 41.151 77.9118 41.2113L78.7791 44.0832C78.778 44.0835 78.7845 44.0815 78.8017 44.0779C78.8191 44.0744 78.8434 44.07 78.8785 44.0648C78.9951 44.0473 79.0021 44.0495 79.1831 44.0244C79.4188 43.9918 79.879 43.9236 80.3308 43.6627L78.8308 41.0646ZM78.7404 41.4019C78.6723 41.2838 78.7127 41.1328 78.8308 41.0646L80.3308 43.6627C81.6476 42.9024 82.0988 41.2187 81.3385 39.9019L78.7404 41.4019ZM77.9842 40.6916C78.1198 40.8558 78.259 40.9862 78.3676 41.0816C78.4639 41.1662 78.5869 41.2658 78.6359 41.3067C78.7906 41.4356 78.7551 41.4273 78.7111 41.351L81.3091 39.851C81.0624 39.4236 80.7214 39.1395 80.5568 39.0023C80.4461 38.9101 80.406 38.8791 80.3469 38.8272C80.3 38.786 80.2914 38.7741 80.2979 38.7819L77.9842 40.6916ZM77.3047 38.9152C77.2841 38.8794 77.2982 38.8785 77.3588 39.1827C77.3994 39.3867 77.4865 39.8957 77.757 40.3642L80.3551 38.8642C80.3757 38.8999 80.3616 38.9008 80.301 38.5967C80.2604 38.3927 80.1733 37.8837 79.9028 37.4152L77.3047 38.9152ZM75.9836 37.4198C76.2792 37.9318 76.7294 38.2778 76.9007 38.418C77.1632 38.6328 77.1469 38.6417 77.1195 38.5943L79.7176 37.0943C79.4219 36.5823 78.9717 36.2363 78.8004 36.0961C78.5379 35.8814 78.5543 35.8724 78.5816 35.9198L75.9836 37.4198ZM74.2488 34.415C74.5435 34.9255 74.9884 35.2765 75.1663 35.4253C75.4311 35.6469 75.4289 35.6662 75.4107 35.6346L78.0088 34.1346C77.714 33.6241 77.2691 33.2731 77.0912 33.1243C76.8264 32.9028 76.8286 32.8834 76.8468 32.915L74.2488 34.415ZM72.547 31.4675C72.8426 31.9795 73.2928 32.3255 73.4641 32.4657C73.7266 32.6804 73.7103 32.6894 73.6829 32.642L76.281 31.142C75.9853 30.6299 75.5352 30.284 75.3638 30.1438C75.1014 29.929 75.1177 29.9201 75.1451 29.9675L72.547 31.4675ZM57.875 35.1076C58.3854 34.8129 58.7364 34.3679 58.8853 34.19C59.1068 33.9252 59.1261 33.9274 59.0945 33.9457L57.5945 31.3476C57.084 31.6423 56.733 32.0873 56.5842 32.2652C56.3627 32.53 56.3433 32.5278 56.375 32.5095L57.875 35.1076ZM72.0978 29.8965C72.0704 29.8491 72.0864 29.8394 72.1411 30.1741C72.1768 30.3926 72.2514 30.9554 72.547 31.4675L75.1451 29.9675C75.1724 30.0149 75.1565 30.0245 75.1018 29.6898C75.066 29.4714 74.9915 28.9085 74.6959 28.3965L72.0978 29.8965ZM70.0136 46.1552C70.061 46.1278 70.0707 46.1438 69.736 46.1985C69.5175 46.2343 68.9547 46.3088 68.4426 46.6044L69.9426 49.2025C69.8952 49.2299 69.8855 49.2139 70.2202 49.1592C70.4387 49.1235 71.0016 49.0489 71.5136 48.7533L70.0136 46.1552ZM70.8122 28.4627C71.1069 28.9732 71.5518 29.3242 71.7297 29.473C71.9946 29.6945 71.9924 29.7139 71.9741 29.6823L74.5722 28.1823C74.2774 27.6718 73.8325 27.3208 73.6546 27.172C73.3898 26.9504 73.392 26.9311 73.4103 26.9627L70.8122 28.4627ZM73.0636 44.3943C73.0952 44.376 73.0875 44.3939 72.7474 44.4533C72.5189 44.4933 71.9581 44.5748 71.4476 44.8695L72.9476 47.4676C72.916 47.4858 72.9237 47.468 73.2638 47.4085C73.4923 47.3686 74.0531 47.2871 74.5636 46.9924L73.0636 44.3943ZM57.2389 35.5911C57.1007 35.4512 56.9628 35.3393 56.859 35.2587C56.8066 35.218 56.7553 35.1795 56.7145 35.149C56.6706 35.1161 56.6381 35.0917 56.6072 35.0678C56.4676 34.9601 56.5158 34.9744 56.5701 35.0684L53.972 36.5684C54.2288 37.0132 54.5849 37.2966 54.7739 37.4425C54.8251 37.4821 54.876 37.5201 54.9154 37.5497C54.958 37.5816 54.99 37.6056 55.0195 37.6286C55.0796 37.6752 55.1001 37.6948 55.1043 37.6991L57.2389 35.5911ZM70.8514 27.1578C70.7127 27.2379 70.5354 27.1904 70.4553 27.0517L73.0534 25.5517C72.3051 24.2555 70.6476 23.8114 69.3514 24.5597L70.8514 27.1578ZM63.8844 31.638C64.3949 31.3433 64.7459 30.8984 64.8948 30.7205C65.1163 30.4556 65.1356 30.4578 65.104 30.4761L63.604 27.878C63.0935 28.1728 62.7425 28.6177 62.5937 28.7956C62.3722 29.0604 62.3528 29.0582 62.3844 29.0399L63.8844 31.638ZM75.5343 35.8488C75.507 35.8014 75.5229 35.7917 75.5777 36.1264C75.6134 36.3449 75.6879 36.9077 75.9836 37.4198L78.5816 35.9198C78.609 35.9672 78.5931 35.9769 78.5383 35.6422C78.5026 35.4237 78.4281 34.8608 78.1324 34.3488L75.5343 35.8488ZM74.3951 43.1678C73.883 43.4634 73.537 43.9136 73.3968 44.0849C73.1821 44.3474 73.1731 44.3311 73.2205 44.3037L74.7205 46.9018C75.2326 46.6061 75.5786 46.156 75.7187 45.9846C75.9335 45.7221 75.9425 45.7385 75.8951 45.7659L74.3951 43.1678ZM70.2059 27.8646C70.3582 27.7325 70.4797 27.5986 70.5681 27.4954C70.6412 27.4102 70.7449 27.2814 70.7767 27.243C70.895 27.1 70.8833 27.1394 70.8017 27.1865L69.3017 24.5884C68.8808 24.8315 68.6026 25.1646 68.4654 25.3305C68.3694 25.4465 68.348 25.4759 68.2909 25.5424C68.2492 25.591 68.2356 25.6023 68.2399 25.5986L70.2059 27.8646ZM75.9661 42.7186C76.0135 42.6912 76.0231 42.7071 75.6885 42.7619C75.47 42.7976 74.9071 42.8721 74.3951 43.1678L75.8951 45.7659C75.8477 45.7932 75.838 45.7773 76.1727 45.7225C76.3911 45.6868 76.954 45.6123 77.4661 45.3166L75.9661 42.7186ZM59.3484 39.0877C59.0528 38.5756 58.6026 38.2297 58.4313 38.0895C58.1688 37.8747 58.1852 37.8658 58.2125 37.9132L55.6145 39.4132C55.9101 39.9252 56.3602 40.2712 56.5316 40.4114C56.794 40.6261 56.7777 40.6351 56.7503 40.5877L59.3484 39.0877ZM66.5639 26.1691C66.0519 26.4647 65.7059 26.9149 65.5657 27.0863C65.351 27.3487 65.342 27.3324 65.3894 27.305L66.8894 29.9031C67.4015 29.6075 67.7475 29.1573 67.8876 28.9859C68.1024 28.7234 68.1114 28.7398 68.0639 28.7672L66.5639 26.1691ZM56.5701 35.0684C56.6501 35.207 56.6027 35.3844 56.4639 35.4644L54.9639 32.8664C53.6677 33.6147 53.2237 35.2722 53.972 36.5684L56.5701 35.0684ZM70.4553 27.0517C70.4011 26.9577 70.4128 26.9088 70.4363 27.0835C70.4415 27.1222 70.4464 27.1626 70.4529 27.2171C70.459 27.2676 70.4667 27.3313 70.4757 27.3971C70.4936 27.5272 70.5215 27.7026 70.5736 27.8922L73.4665 27.0977C73.4649 27.0919 73.4581 27.0644 73.4478 26.989C73.4427 26.952 73.4379 26.9123 73.4315 26.8594C73.4257 26.8105 73.4181 26.7474 73.4095 26.6832C73.3777 26.4467 73.3102 25.9965 73.0534 25.5517L70.4553 27.0517ZM60.8797 33.3728C61.3918 33.0772 61.7377 32.627 61.8779 32.4556C62.0927 32.1932 62.1016 32.2095 62.0542 32.2369L60.5542 29.6388C60.0422 29.9344 59.6962 30.3846 59.556 30.556C59.3413 30.8184 59.3323 30.8021 59.3797 30.7747L60.8797 33.3728ZM73.7736 32.799C73.7553 32.7674 73.7732 32.7752 73.8326 33.1153C73.8725 33.3437 73.954 33.9045 74.2488 34.415L76.8468 32.915C76.8651 32.9467 76.8472 32.9389 76.7878 32.5988C76.7479 32.3703 76.6664 31.8095 76.3716 31.299L73.7736 32.799ZM77.3998 41.433C76.8893 41.7277 76.5383 42.1726 76.3895 42.3506C76.168 42.6154 76.1486 42.6132 76.1802 42.5949L77.6802 45.193C78.1907 44.8983 78.5417 44.4533 78.6906 44.2754C78.9121 44.0106 78.9314 44.0128 78.8998 44.0311L77.3998 41.433ZM68.3847 28.582C68.349 28.6026 68.3481 28.5885 68.6522 28.5279C68.8562 28.4873 69.3652 28.4002 69.8337 28.1297L68.3337 25.5317C68.3694 25.511 68.3703 25.5251 68.0662 25.5857C67.8622 25.6263 67.3532 25.7134 66.8847 25.9839L68.3847 28.582Z" fill="#17120F" mask="url(#path-10-inside-2)"/>
<path d="M48.9727 41.8418C48.1858 40.4789 46.443 40.0119 45.0801 40.7988C43.7172 41.5857 43.2502 43.3285 44.0371 44.6914" stroke="#17120F" stroke-width="1.5" stroke-linecap="round"/>
<path d="M54.5801 50.9112C53.7932 49.5482 52.0505 49.0813 50.6875 49.8681C49.3246 50.655 48.8576 52.3978 49.6445 53.7607" stroke="#17120F" stroke-width="1.5" stroke-linecap="round"/>
<path d="M60.1885 59.9808C59.4016 58.6179 57.6589 58.1509 56.2959 58.9378C54.933 59.7247 54.466 61.4675 55.2529 62.8304" stroke="#17120F" stroke-width="1.5" stroke-linecap="round"/>
<path d="M67.416 75.6982C67.416 61.509 78.9432 50.0038 93.166 50.0038C107.389 50.0038 118.916 61.509 118.916 75.6982C118.916 76.166 118.903 76.6307 118.879 77.0922C118.838 77.111 118.794 77.1311 118.748 77.1525C118.399 77.3132 117.894 77.5477 117.265 77.8432C116.007 78.4342 114.254 79.2696 112.275 80.2474C108.322 82.1999 103.442 84.7324 99.7943 87.0263C96.2795 89.2365 92.0348 92.4036 88.6812 95.0072C87.0016 96.3111 85.5404 97.4777 84.4989 98.3184C83.9781 98.7388 83.5622 99.0778 83.2762 99.3119C83.2427 99.3393 83.211 99.3653 83.1812 99.3898C73.9169 95.4974 67.416 86.3539 67.416 75.6982Z" fill="#F1EFEB" stroke="#17120F" stroke-width="1.5"/>
<path d="M103.345 101.642L110.706 97.3921L121.331 115.795C122.505 117.828 121.808 120.427 119.775 121.601C117.743 122.774 115.143 122.078 113.97 120.045L103.345 101.642Z" fill="#555555" stroke="#17120F" stroke-width="1.5"/>
<mask id="path-17-inside-3" fill="white">
<path fill-rule="evenodd" clip-rule="evenodd" d="M92.9117 108.424C110.449 108.424 124.666 94.2072 124.666 76.6697C124.666 59.1321 110.449 44.9152 92.9117 44.9152C75.3742 44.9152 61.1572 59.1321 61.1572 76.6697C61.1572 94.2072 75.3742 108.424 92.9117 108.424ZM93.1663 100.254C106.145 100.254 116.666 89.7325 116.666 76.7538C116.666 63.7751 106.145 53.2538 93.1663 53.2538C80.1876 53.2538 69.6663 63.7751 69.6663 76.7538C69.6663 89.7325 80.1876 100.254 93.1663 100.254Z"/>
</mask>
<path fill-rule="evenodd" clip-rule="evenodd" d="M92.9117 108.424C110.449 108.424 124.666 94.2072 124.666 76.6697C124.666 59.1321 110.449 44.9152 92.9117 44.9152C75.3742 44.9152 61.1572 59.1321 61.1572 76.6697C61.1572 94.2072 75.3742 108.424 92.9117 108.424ZM93.1663 100.254C106.145 100.254 116.666 89.7325 116.666 76.7538C116.666 63.7751 106.145 53.2538 93.1663 53.2538C80.1876 53.2538 69.6663 63.7751 69.6663 76.7538C69.6663 89.7325 80.1876 100.254 93.1663 100.254Z" fill="#555555"/>
<path d="M123.166 76.6697C123.166 93.3788 109.621 106.924 92.9117 106.924V109.924C111.278 109.924 126.166 95.0356 126.166 76.6697H123.166ZM92.9117 46.4152C109.621 46.4152 123.166 59.9606 123.166 76.6697H126.166C126.166 58.3037 111.278 43.4152 92.9117 43.4152V46.4152ZM62.6572 76.6697C62.6572 59.9606 76.2026 46.4152 92.9117 46.4152V43.4152C74.5458 43.4152 59.6572 58.3037 59.6572 76.6697H62.6572ZM92.9117 106.924C76.2026 106.924 62.6572 93.3788 62.6572 76.6697H59.6572C59.6572 95.0356 74.5458 109.924 92.9117 109.924V106.924ZM115.166 76.7538C115.166 88.904 105.317 98.7538 93.1663 98.7538V101.754C106.973 101.754 118.166 90.5609 118.166 76.7538H115.166ZM93.1663 54.7538C105.317 54.7538 115.166 64.6035 115.166 76.7538H118.166C118.166 62.9466 106.973 51.7538 93.1663 51.7538V54.7538ZM71.1663 76.7538C71.1663 64.6035 81.016 54.7538 93.1663 54.7538V51.7538C79.3591 51.7538 68.1663 62.9466 68.1663 76.7538H71.1663ZM93.1663 98.7538C81.016 98.7538 71.1663 88.904 71.1663 76.7538H68.1663C68.1663 90.5609 79.3591 101.754 93.1663 101.754V98.7538Z" fill="#17120F" mask="url(#path-17-inside-3)"/>
<mask id="mask0" mask-type="alpha" maskUnits="userSpaceOnUse" x="74" y="56" width="33" height="34">
<path fill-rule="evenodd" clip-rule="evenodd" d="M88.5611 60.8808C89.1471 60.5424 89.4563 59.7865 90.0423 59.4482L90.4465 59.2149C90.9922 58.8998 91.728 58.9597 92.2737 58.6446V58.6446C92.3373 58.6079 92.3959 58.5659 92.4493 58.5196C92.8224 58.1958 93.0665 57.7022 93.4944 57.4552L93.557 57.419C94.2867 56.9977 95.2199 57.2477 95.6413 57.9775V57.9775C95.8967 58.4199 95.841 58.9896 95.9762 59.4821C96.002 59.5759 96.0401 59.6682 96.0912 59.7567V59.7567C96.4399 60.3606 97.2077 60.6907 97.5564 61.2945L97.7123 61.5646C98.0505 62.1505 97.9404 62.9597 98.2787 63.5456V63.5456V63.5456C98.617 64.1315 99.3728 64.4408 99.7111 65.0267L99.8253 65.2245C100.174 65.8283 100.076 66.6584 100.425 67.2622V67.2622V67.2622C100.773 67.8661 101.541 68.1962 101.89 68.8001L102.046 69.0705C102.384 69.6563 102.274 70.4653 102.612 71.0511V71.0511V71.0511C102.95 71.637 103.706 71.9462 104.044 72.532L104.278 72.9368C104.593 73.4825 104.533 74.2181 104.848 74.7638V74.7638C104.88 74.8191 104.916 74.8707 104.955 74.9183C105.281 75.3126 105.796 75.5653 106.051 76.0081L106.088 76.0725C106.525 76.8281 106.266 77.7944 105.51 78.2307V78.2307C105.052 78.4952 104.459 78.4353 103.952 78.5882C103.868 78.6136 103.785 78.6491 103.705 78.6951V78.6951C103.101 79.0438 102.771 79.8119 102.167 80.1606L101.898 80.3163C101.312 80.6545 100.503 80.5444 99.9168 80.8827V80.8827V80.8827C99.3309 81.221 99.0217 81.9768 98.4358 82.315L98.2379 82.4293C97.6341 82.7779 96.804 82.6799 96.2002 83.0285V83.0285V83.0285C95.5963 83.3771 95.2662 84.145 94.6624 84.4936L94.3923 84.6495C93.8064 84.9878 92.9972 84.8777 92.4113 85.216V85.216V85.216C91.8254 85.5542 91.5162 86.3101 90.9302 86.6484L90.5258 86.8818C89.9801 87.1969 89.2443 87.137 88.6985 87.4521V87.4521C88.6349 87.4889 88.5763 87.5308 88.523 87.5771C88.1498 87.9009 87.9057 88.3946 87.4778 88.6416L87.4401 88.6634C86.6966 89.0927 85.7457 88.8379 85.3164 88.0943V88.0943C85.0505 87.6337 85.119 87.0322 84.9575 86.5255C84.9334 86.4501 84.9009 86.3759 84.8596 86.3043V86.3043C84.5182 85.713 83.758 85.3951 83.4166 84.8038L83.2593 84.5312C82.9212 83.9457 83.0309 83.1371 82.6928 82.5516V82.5516V82.5516C82.3548 81.966 81.5997 81.6568 81.2616 81.0712L81.1044 80.799C80.756 80.1955 80.8537 79.3661 80.5053 78.7627V78.7627V78.7627C80.1569 78.1592 79.3898 77.8291 79.0414 77.2256L78.9258 77.0255C78.5878 76.44 78.6975 75.6316 78.3594 75.046V75.046V75.046C78.0214 74.4605 77.2664 74.1513 76.9284 73.5658L76.7712 73.2935C76.4227 72.69 76.5204 71.8606 76.172 71.2572V71.2572C76.121 71.1688 76.0602 71.0898 75.992 71.0206C75.6333 70.6571 75.1122 70.4202 74.8569 69.9779V69.9779C74.4356 69.2482 74.6853 68.3146 75.4151 67.8932V67.8932C75.8575 67.6378 76.4273 67.6936 76.9199 67.5583C77.0137 67.5325 77.106 67.4944 77.1945 67.4433V67.4433C77.7984 67.0946 78.1286 66.3266 78.7325 65.9779L79.0023 65.8221C79.5882 65.4839 80.3974 65.594 80.9833 65.2557V65.2557V65.2557C81.5692 64.9174 81.8784 64.1616 82.4643 63.8234L82.7344 63.6674C83.3382 63.3188 84.1683 63.4169 84.7722 63.0682V63.0682V63.0682C85.376 62.7196 85.7061 61.9517 86.31 61.6031L86.5799 61.4472C87.1659 61.1089 87.9752 61.2191 88.5611 60.8808V60.8808V60.8808Z" fill="#C4C4C4"/>
</mask>
<g mask="url(#mask0)">
<mask id="mask1" mask-type="alpha" maskUnits="userSpaceOnUse" x="74" y="56" width="33" height="34">
<rect x="74.0938" y="68.6561" width="24" height="24" transform="rotate(-30 74.0938 68.6561)" fill="#C4C4C4"/>
</mask>
<g mask="url(#mask1)">
<path d="M74.0938 68.656L94.8784 56.656L106.878 77.4406L86.0938 89.4406L74.0938 68.656Z" fill="#B7CDCF"/>
<path d="M92.7265 70.0721C87.8273 72.9006 86.5887 78.0696 86.7698 78.9547L89.5984 83.854L107.933 73.2683L101.462 62.0594C94.9296 65.8308 97.8801 67.0966 92.7265 70.0721Z" fill="#D1BFA1" stroke="#17120F" stroke-width="1.5"/>
<path fill-rule="evenodd" clip-rule="evenodd" d="M95.4099 68.1533C94.8524 68.7572 94.0631 69.3993 92.7693 70.1463C90.3369 71.5506 88.8128 73.5361 87.9192 75.2813C87.4724 76.1538 87.1837 76.9653 87.0181 77.6124C86.9353 77.936 86.8835 78.2176 86.8579 78.4446C86.8332 78.6636 86.8337 78.8257 86.8512 78.9244L89.6297 83.7369L107.816 73.2369L101.431 62.1766C99.8442 63.098 98.8305 63.867 98.1253 64.5458C97.41 65.2343 97.0097 65.8324 96.6498 66.4096C96.6072 66.478 96.5651 66.5461 96.5231 66.6141C96.2101 67.1209 95.9008 67.6215 95.4099 68.1533ZM98.0064 64.4223C98.7353 63.7206 99.7819 62.9304 101.419 61.9852L101.493 61.9423L108.05 73.2996L89.5669 83.9711L86.6885 78.9856L86.6857 78.9719C86.6603 78.8478 86.6612 78.6594 86.6875 78.4254C86.7142 78.1891 86.7677 77.8996 86.852 77.5699C87.0208 76.9105 87.314 76.087 87.7666 75.2031C88.6719 73.4353 90.2167 71.4221 92.6836 69.9978C93.9665 69.2571 94.741 68.6252 95.2839 68.0371C95.763 67.518 96.0637 67.0314 96.377 66.5244C96.4191 66.4563 96.4614 66.3879 96.5044 66.3189C96.8676 65.7363 97.2766 65.1248 98.0064 64.4223Z" fill="#17120F"/>
<path d="M90.3471 75.207C86.4546 75.8707 82.2194 78.8438 80.5884 80.2473L86.117 89.8231L109.425 76.366L107.454 72.9513C103.149 75.4371 95.2127 74.3773 90.3471 75.207Z" fill="#687A9E" stroke="#17120F" stroke-width="1.5"/>
<path fill-rule="evenodd" clip-rule="evenodd" d="M80.6982 80.2661L86.1483 89.7059L109.308 76.3345L107.422 73.0679C105.254 74.288 102.208 74.638 99.1146 74.7857C98.1791 74.8304 97.2392 74.8566 96.3166 74.8824C94.1429 74.943 92.0645 75.001 90.3614 75.2914C88.4293 75.6209 86.4074 76.5247 84.6622 77.5241C82.9558 78.5012 81.5195 79.5665 80.6982 80.2661ZM84.577 77.3753C86.3303 76.3713 88.3723 75.4567 90.3326 75.1224C92.0483 74.8299 94.1466 74.7713 96.3264 74.7105C97.2461 74.6848 98.1804 74.6587 99.1065 74.6145C102.238 74.465 105.278 74.1083 107.411 72.877L107.485 72.8342L109.542 76.3973L86.0855 89.9401L80.4786 80.2286L80.5324 80.1823C81.352 79.477 82.823 78.3797 84.577 77.3753Z" fill="#17120F"/>
</g>
</g>
<mask id="path-26-inside-4" fill="white">
<path fill-rule="evenodd" clip-rule="evenodd" d="M88.561 60.8808C89.1469 60.5425 89.4562 59.7866 90.0421 59.4483L90.4627 59.2055C90.9981 58.8964 91.7168 58.9542 92.2572 58.6539C92.2627 58.6509 92.2682 58.6478 92.2737 58.6446C92.3372 58.6079 92.3958 58.5659 92.4492 58.5197C92.8224 58.1959 93.0665 57.7022 93.4943 57.4552L93.557 57.419C94.2868 56.9977 95.2199 57.2477 95.6412 57.9774V57.9774C95.8966 58.4198 95.8409 58.9895 95.9762 59.4821C96.0019 59.5759 96.0401 59.6683 96.0912 59.7568C96.0986 59.7696 96.1062 59.7823 96.1141 59.7948C96.4703 60.3618 97.1995 60.6764 97.5343 61.2563L97.7122 61.5645C98.0505 62.1505 97.9404 62.9597 98.2787 63.5456V63.5456V63.5456C98.617 64.1316 99.3729 64.4408 99.7111 65.0267L99.8475 65.2628C100.182 65.8427 100.09 66.6315 100.403 67.2235C100.41 67.2365 100.417 67.2495 100.425 67.2623C100.432 67.2752 100.44 67.2879 100.447 67.3003C100.804 67.8673 101.533 68.1819 101.868 68.7618L102.046 69.0701C102.384 69.656 102.274 70.4652 102.612 71.0512V71.0512V71.0512C102.95 71.6371 103.706 71.9463 104.044 72.5323L104.287 72.9529C104.596 73.4883 104.539 74.207 104.839 74.7474C104.842 74.7529 104.845 74.7584 104.848 74.7638C104.88 74.8192 104.916 74.8708 104.955 74.9185C105.281 75.3128 105.796 75.5654 106.051 76.0083L106.088 76.0724C106.525 76.8281 106.266 77.7944 105.51 78.2307V78.2307C105.052 78.4952 104.459 78.4353 103.952 78.5882C103.868 78.6137 103.785 78.6492 103.706 78.6952C103.693 78.7026 103.68 78.7103 103.668 78.7181C103.101 79.0743 102.786 79.8035 102.206 80.1383L101.898 80.3163C101.312 80.6546 100.503 80.5444 99.9167 80.8827V80.8827V80.8827C99.3307 81.221 99.0215 81.9769 98.4356 82.3152L98.1995 82.4515C97.6196 82.7863 96.8308 82.6941 96.2388 83.0071C96.2258 83.014 96.2128 83.0211 96.2 83.0285C96.1871 83.036 96.1744 83.0436 96.162 83.0514C95.595 83.4076 95.2804 84.1368 94.7005 84.4716L94.3922 84.6496C93.8063 84.9879 92.997 84.8777 92.4111 85.216V85.216V85.216C91.8252 85.5543 91.5159 86.3102 90.93 86.6485L90.5094 86.8913C89.974 87.2005 89.2553 87.1426 88.7149 87.4429C88.7094 87.4459 88.7039 87.449 88.6985 87.4522C88.6349 87.4889 88.5763 87.5309 88.5229 87.5771C88.1497 87.9009 87.9056 88.3946 87.4778 88.6416L87.4395 88.6637C86.6963 89.0928 85.7459 88.8382 85.3168 88.0949V88.0949C85.0508 87.6342 85.1196 87.0325 84.9581 86.5256C84.9341 86.45 84.9015 86.3757 84.8601 86.304V86.304C84.5185 85.7123 83.7576 85.3944 83.416 84.8028L83.2599 84.5323C82.9216 83.9463 83.0317 83.1371 82.6934 82.5512V82.5512V82.5512C82.3551 81.9652 81.5993 81.656 81.261 81.0701L81.083 80.7618C80.7482 80.1819 80.8403 79.3931 80.5274 78.8011C80.5205 78.7881 80.5134 78.7752 80.5059 78.7623C80.4985 78.7495 80.4909 78.7368 80.483 78.7243C80.1268 78.1573 79.3976 77.8427 79.0628 77.2628L78.9265 77.0267C78.5882 76.4408 78.6984 75.6316 78.3601 75.0456V75.0456V75.0456C78.0218 74.4597 77.2659 74.1505 76.9276 73.5645L76.7497 73.2563C76.4149 72.6764 76.507 71.8876 76.1941 71.2956C76.1872 71.2826 76.18 71.2696 76.1726 71.2568C76.1215 71.1683 76.0606 71.0891 75.9923 71.0198C75.6333 70.6564 75.112 70.4198 74.8566 69.9774V69.9774C74.4353 69.2477 74.6853 68.3146 75.4151 67.8932V67.8932C75.8575 67.6378 76.4272 67.6936 76.9198 67.5583C77.0136 67.5325 77.1059 67.4944 77.1944 67.4433C77.2073 67.4359 77.2199 67.4282 77.2324 67.4204C77.7994 67.0642 78.114 66.335 78.6939 66.0002L79.0022 65.8222C79.5881 65.4839 80.3973 65.5941 80.9833 65.2558V65.2558V65.2558C81.5692 64.9175 81.8784 64.1616 82.4644 63.8233L82.7727 63.6453C83.3525 63.3105 84.1413 63.4027 84.7333 63.0897C84.7463 63.0829 84.7593 63.0757 84.7721 63.0683C84.785 63.0609 84.7977 63.0532 84.8101 63.0454C85.3771 62.6892 85.6917 61.96 86.2716 61.6252L86.5799 61.4472C87.1658 61.1089 87.9751 61.2191 88.561 60.8808V60.8808V60.8808Z"/>
</mask>
<path d="M84.7333 63.0897L85.4343 64.4159L84.7333 63.0897ZM90.5094 86.8913L89.7594 85.5923L90.5094 86.8913ZM90.93 86.6485L90.18 85.3495L90.93 86.6485ZM96.162 83.0514L95.364 81.7813L96.162 83.0514ZM103.952 78.5882L103.519 77.1523L103.952 78.5882ZM106.051 76.0083L104.752 76.7583L106.051 76.0083ZM104.287 72.9529L102.988 73.7029L104.287 72.9529ZM104.839 74.7474L106.15 74.0189L104.839 74.7474ZM104.044 72.5323L102.745 73.2823L104.044 72.5323ZM100.447 67.3003L99.1772 68.0983L99.1772 68.0983L100.447 67.3003ZM94.3922 84.6496L95.1422 85.9486L94.3922 84.6496ZM96.1141 59.7948L97.3842 58.9968L96.1141 59.7948ZM96.2388 83.0071L95.5378 81.681L96.2388 83.0071ZM84.8101 63.0454L85.6081 64.3155L84.8101 63.0454ZM92.4492 58.5197L91.4662 57.3867L92.4492 58.5197ZM101.898 80.3163L102.648 81.6153L101.898 80.3163ZM95.9762 59.4821L94.5297 59.8793L95.9762 59.4821ZM103.668 78.7181L104.465 79.9882L103.668 78.7181ZM89.7127 57.9065L89.2921 58.1493L90.7921 60.7474L91.2127 60.5045L89.7127 57.9065ZM91.5237 57.3456C91.5253 57.3446 91.527 57.3437 91.5287 57.3427L92.9858 59.9651C92.9985 59.9581 93.0111 59.9509 93.0237 59.9437L91.5237 57.3456ZM91.4662 57.3867C91.4847 57.3706 91.5041 57.3569 91.5237 57.3456L93.0237 59.9437C93.1704 59.8589 93.307 59.7613 93.4322 59.6527L91.4662 57.3867ZM92.807 56.1199L92.7443 56.1561L94.2443 58.7542L94.307 58.718L92.807 56.1199ZM97.3902 59.0068C97.4035 59.0298 97.4147 59.0561 97.4226 59.0849L94.5297 59.8793C94.5891 60.0957 94.6766 60.3067 94.7921 60.5068L97.3902 59.0068ZM97.3842 58.9968C97.3863 59.0002 97.3883 59.0035 97.3902 59.0068L94.7921 60.5068C94.8089 60.5358 94.8262 60.5644 94.8439 60.5927L97.3842 58.9968ZM99.0113 60.8145L98.8333 60.5063L96.2352 62.0063L96.4132 62.3145L99.0113 60.8145ZM101.146 64.5128L101.01 64.2767L98.4121 65.7767L98.5484 66.0128L101.146 64.5128ZM101.724 66.5123C101.725 66.5156 101.727 66.519 101.729 66.5225L99.0769 67.9245C99.0925 67.954 99.1087 67.9833 99.1255 68.0123L101.724 66.5123ZM101.718 66.5024C101.72 66.5057 101.722 66.509 101.724 66.5123L99.1255 68.0123C99.1422 68.0414 99.1595 68.07 99.1772 68.0983L101.718 66.5024ZM103.345 68.3201L103.167 68.0118L100.569 69.5118L100.747 69.8201L103.345 68.3201ZM105.586 72.2029L105.344 71.7823L102.745 73.2823L102.988 73.7029L105.586 72.2029ZM106.147 74.0138C106.148 74.0155 106.149 74.0172 106.15 74.0189L103.528 75.476C103.535 75.4887 103.542 75.5013 103.549 75.5138L106.147 74.0138ZM106.112 73.9636C106.126 73.9799 106.137 73.9969 106.147 74.0138L103.549 75.5138C103.623 75.6416 103.706 75.7617 103.799 75.8734L106.112 73.9636ZM107.387 75.3224L107.35 75.2583L104.752 76.7583L104.789 76.8224L107.387 75.3224ZM104.456 79.9942C104.435 80.0062 104.411 80.0165 104.386 80.0242L103.519 77.1523C103.325 77.2108 103.136 77.2922 102.956 77.3962L104.456 79.9942ZM104.465 79.9882C104.462 79.9903 104.459 79.9923 104.456 79.9942L102.956 77.3962C102.926 77.4129 102.898 77.4302 102.87 77.4479L104.465 79.9882ZM102.648 81.6153L102.956 81.4373L101.456 78.8392L101.148 79.0172L102.648 81.6153ZM98.9495 83.7505L99.1856 83.6142L97.6856 81.0161L97.4495 81.1524L98.9495 83.7505ZM96.95 84.3276C96.9467 84.3295 96.9433 84.3313 96.9398 84.3332L95.5378 81.681C95.5083 81.6966 95.479 81.7127 95.45 81.7295L96.95 84.3276ZM96.9599 84.3216C96.9566 84.3237 96.9533 84.3257 96.95 84.3276L95.45 81.7295C95.4209 81.7463 95.3923 81.7635 95.364 81.7813L96.9599 84.3216ZM95.1422 85.9486L95.4505 85.7707L93.9505 83.1726L93.6422 83.3506L95.1422 85.9486ZM91.2594 88.1904L91.68 87.9475L90.18 85.3495L89.7594 85.5923L91.2594 88.1904ZM89.4485 88.7512C89.4468 88.7522 89.4451 88.7531 89.4434 88.7541L87.9863 86.1317C87.9736 86.1388 87.961 86.1459 87.9485 86.1532L89.4485 88.7512ZM89.5059 88.7101C89.4874 88.7262 89.468 88.74 89.4485 88.7512L87.9485 86.1532C87.8017 86.2379 87.6651 86.3355 87.5399 86.4442L89.5059 88.7101ZM88.1895 89.9628L88.2278 89.9407L86.7278 87.3426L86.6895 87.3647L88.1895 89.9628ZM83.5611 87.054C83.5483 87.0319 83.5373 87.0073 83.5289 86.9807L86.3874 86.0704C86.3308 85.8927 86.2547 85.7195 86.1591 85.554L83.5611 87.054ZM81.9608 85.2823L82.117 85.5528L84.7151 84.0528L84.5589 83.7823L81.9608 85.2823ZM79.7839 81.5118L79.9619 81.8201L82.56 80.3201L82.382 80.0118L79.7839 81.5118ZM79.2069 79.5123C79.205 79.509 79.2031 79.5056 79.2013 79.5022L81.8535 78.1001C81.8379 78.0706 81.8217 78.0414 81.805 78.0123L79.2069 79.5123ZM79.2129 79.5223C79.2108 79.5189 79.2088 79.5156 79.2069 79.5123L81.805 78.0123C81.7882 77.9833 81.7709 77.9547 81.7532 77.9264L79.2129 79.5223ZM77.6275 77.7767L77.7638 78.0128L80.3619 76.5128L80.2256 76.2767L77.6275 77.7767ZM75.4506 74.0063L75.6286 74.3145L78.2267 72.8145L78.0487 72.5063L75.4506 74.0063ZM74.8736 72.0068C74.8717 72.0035 74.8698 72.0001 74.8679 71.9966L77.5202 70.5946C77.5046 70.5651 77.4884 70.5358 77.4716 70.5068L74.8736 72.0068ZM74.925 72.0739C74.9041 72.0527 74.8869 72.0298 74.8736 72.0068L77.4716 70.5068C77.3561 70.3067 77.2172 70.1254 77.0595 69.9658L74.925 72.0739ZM76.4444 66.1442C76.4675 66.1309 76.4938 66.1197 76.5226 66.1118L77.317 69.0047C77.5334 68.9453 77.7443 68.8578 77.9444 68.7423L76.4444 66.1442ZM76.4345 66.1502C76.4378 66.1481 76.4411 66.1462 76.4444 66.1442L77.9444 68.7423C77.9734 68.7256 78.0021 68.7083 78.0304 68.6905L76.4345 66.1502ZM78.2522 64.5232L77.9439 64.7012L79.4439 67.2992L79.7522 67.1213L78.2522 64.5232ZM82.0227 62.3463L81.7144 62.5243L83.2144 65.1224L83.5227 64.9444L82.0227 62.3463ZM84.0221 61.7692C84.0254 61.7673 84.0288 61.7655 84.0323 61.7636L85.4343 64.4159C85.4638 64.4003 85.4931 64.3841 85.5221 64.3673L84.0221 61.7692ZM84.0122 61.7752C84.0155 61.7731 84.0188 61.7712 84.0221 61.7692L85.5221 64.3673C85.5512 64.3506 85.5798 64.3333 85.6081 64.3155L84.0122 61.7752ZM85.8299 60.1482L85.5216 60.3262L87.0216 62.9242L87.3299 62.7463L85.8299 60.1482ZM87.3299 62.7463C87.3182 62.753 87.3375 62.7393 87.4236 62.7174C87.5171 62.6936 87.6263 62.6748 87.8125 62.6443C88.1032 62.5968 88.7383 62.5105 89.311 62.1798L87.811 59.5817C87.8227 59.575 87.8034 59.5887 87.7173 59.6106C87.6238 59.6344 87.5146 59.6532 87.3284 59.6837C87.0377 59.7312 86.4026 59.8175 85.8299 60.1482L87.3299 62.7463ZM83.5227 64.9444C83.5158 64.9483 83.5382 64.934 83.622 64.9119C83.7121 64.8882 83.8199 64.8685 83.9978 64.8385C84.2783 64.7912 84.8833 64.7072 85.4343 64.4159L84.0323 61.7636C84.0325 61.7635 84.0239 61.7681 84.0025 61.7757C83.9807 61.7834 83.9488 61.7931 83.9029 61.8043C83.8005 61.8293 83.6871 61.8485 83.4991 61.8802C83.1986 61.9309 82.5844 62.022 82.0227 62.3463L83.5227 64.9444ZM79.7522 67.1213C79.7405 67.128 79.7598 67.1143 79.8459 67.0924C79.9394 67.0686 80.0486 67.0498 80.2348 67.0193C80.5255 66.9718 81.1606 66.8855 81.7333 66.5548L80.2333 63.9567C80.2449 63.95 80.2257 63.9637 80.1396 63.9856C80.0461 64.0094 79.9369 64.0282 79.7507 64.0587C79.46 64.1062 78.8249 64.1925 78.2522 64.5232L79.7522 67.1213ZM76.1651 69.1923C76.1168 69.2201 76.1203 69.198 76.3487 69.1673C76.4008 69.1603 76.4546 69.1538 76.5227 69.1457C76.5867 69.138 76.6639 69.1287 76.743 69.1178C76.9 69.0963 77.1019 69.0638 77.317 69.0047L76.5226 66.1118C76.4058 66.1439 76.3308 66.1427 75.9485 66.1941C75.6583 66.2332 75.1557 66.3109 74.6651 66.5942L76.1651 69.1923ZM78.0487 72.5063C78.0526 72.5131 78.0383 72.4907 78.0163 72.4069C77.9926 72.3168 77.9728 72.209 77.9428 72.0311C77.8955 71.7506 77.8115 71.1457 77.5202 70.5946L74.8679 71.9966C74.8678 71.9964 74.8724 72.005 74.88 72.0264C74.8877 72.0483 74.8974 72.0801 74.9086 72.126C74.9336 72.2284 74.9528 72.3418 74.9845 72.5298C75.0352 72.8303 75.1263 73.4445 75.4506 74.0063L78.0487 72.5063ZM80.2256 76.2767C80.2323 76.2884 80.2186 76.2692 80.1967 76.1831C80.173 76.0896 80.1541 75.9804 80.1237 75.7941C80.0761 75.5034 79.9898 74.8684 79.6591 74.2956L77.0611 75.7956C77.0543 75.784 77.0681 75.8032 77.0899 75.8893C77.1137 75.9828 77.1325 76.092 77.163 76.2783C77.2105 76.5689 77.2968 77.204 77.6275 77.7767L80.2256 76.2767ZM81.7532 77.9264C81.4216 77.3986 80.9397 77.0233 80.7204 76.8421C80.5814 76.7272 80.4979 76.6562 80.4317 76.5906C80.3701 76.5296 80.3579 76.506 80.3619 76.5128L77.7638 78.0128C78.0881 78.5746 78.5745 78.9606 78.8094 79.1547C78.9564 79.2762 79.045 79.3495 79.1212 79.4224C79.1553 79.455 79.178 79.4793 79.1931 79.4969C79.2078 79.5142 79.213 79.5224 79.2129 79.5223L81.7532 77.9264ZM82.382 80.0118C82.386 80.0187 82.3716 79.9963 82.3496 79.9125C82.3259 79.8224 82.3061 79.7146 82.2761 79.5367C82.2288 79.2561 82.1448 78.6512 81.8535 78.1001L79.2013 79.5022C79.2012 79.502 79.2057 79.5106 79.2133 79.532C79.221 79.5538 79.2308 79.5856 79.242 79.6315C79.267 79.734 79.2862 79.8473 79.3179 80.0353C79.3685 80.3359 79.4596 80.9501 79.7839 81.5118L82.382 80.0118ZM83.9925 81.8012C83.6618 81.2285 83.155 80.8362 82.927 80.6497C82.7809 80.5302 82.6958 80.4592 82.6267 80.3919C82.5631 80.3299 82.5533 80.3084 82.56 80.3201L79.9619 81.8201C80.2926 82.3928 80.7994 82.7851 81.0274 82.9716C81.1735 83.0911 81.2586 83.162 81.3277 83.2293C81.3913 83.2913 81.4011 83.3129 81.3944 83.3012L83.9925 81.8012ZM84.5589 83.7823C84.5656 83.794 84.5519 83.7747 84.53 83.6886C84.5063 83.5951 84.4874 83.4859 84.457 83.2997C84.4095 83.009 84.3231 82.3739 83.9925 81.8012L81.3944 83.3012C81.3877 83.2895 81.4014 83.3088 81.4233 83.3949C81.447 83.4884 81.4659 83.5976 81.4963 83.7838C81.5438 84.0745 81.6302 84.7096 81.9608 85.2823L84.5589 83.7823ZM86.1591 85.554C85.8287 84.9816 85.3232 84.5866 85.0926 84.3963C84.9457 84.2751 84.8587 84.2021 84.7878 84.1326C84.7222 84.0683 84.7101 84.0442 84.7151 84.0528L82.117 85.5528C82.4474 86.1251 82.9529 86.5202 83.1835 86.7104C83.3304 86.8317 83.4174 86.9047 83.4883 86.9742C83.5539 87.0385 83.566 87.0626 83.5611 87.054L86.1591 85.554ZM86.6158 87.3449C86.6424 87.391 86.6192 87.3848 86.5851 87.1291C86.5746 87.0506 86.5499 86.84 86.528 86.6955C86.502 86.5234 86.4617 86.3038 86.3874 86.0704L83.5289 86.9807C83.5572 87.0697 83.5607 87.1459 83.6114 87.5261C83.6498 87.8132 83.7251 88.3381 84.0177 88.8449L86.6158 87.3449ZM86.6895 87.3647C86.6637 87.3796 86.6307 87.3708 86.6158 87.3449L84.0177 88.8449C84.8611 90.3056 86.7288 90.8061 88.1895 89.9628L86.6895 87.3647ZM87.5399 86.4442C87.3683 86.593 87.2291 86.7459 87.1237 86.8689C87.0336 86.9739 86.9137 87.1233 86.8652 87.182C86.7135 87.3653 86.6904 87.3642 86.7278 87.3426L88.2278 89.9407C88.693 89.6721 89.0059 89.3006 89.1766 89.0944C89.4005 88.8238 89.4413 88.7662 89.5059 88.7101L87.5399 86.4442ZM89.7594 85.5923C89.7672 85.5878 89.7476 85.6006 89.6709 85.6223C89.5879 85.6458 89.4901 85.6661 89.3249 85.6986C89.0641 85.7498 88.5017 85.8454 87.9863 86.1317L89.4434 88.7541C89.4394 88.7563 89.4634 88.7424 89.5449 88.72C89.6332 88.6958 89.7335 88.6756 89.9032 88.6423C90.1728 88.5893 90.7393 88.4907 91.2594 88.1904L89.7594 85.5923ZM91.6611 83.917C91.0884 84.2477 90.6961 84.7545 90.5096 84.9825C90.3901 85.1285 90.3192 85.2137 90.2518 85.2828C90.1899 85.3464 90.1683 85.3562 90.18 85.3495L91.68 87.9475C92.2527 87.6169 92.645 87.11 92.8315 86.8821C92.951 86.736 93.0219 86.6509 93.0893 86.5818C93.1513 86.5181 93.1728 86.5083 93.1611 86.5151L91.6611 83.917ZM95.364 81.7813C94.8362 82.1129 94.461 82.5947 94.2798 82.8141C94.1648 82.9531 94.0938 83.0366 94.0282 83.1028C93.9672 83.1643 93.9436 83.1765 93.9505 83.1726L95.4505 85.7707C96.0122 85.4463 96.3982 84.96 96.5924 84.725C96.7138 84.5781 96.7871 84.4895 96.86 84.4133C96.8926 84.3791 96.917 84.3564 96.9346 84.3414C96.9519 84.3266 96.9601 84.3215 96.9599 84.3216L95.364 81.7813ZM104.76 76.9317C104.801 76.9079 104.79 76.9314 104.544 76.9655C104.484 76.9738 104.247 77.0031 104.123 77.0215C103.957 77.0464 103.744 77.0841 103.519 77.1523L104.386 80.0242C104.491 79.9924 104.573 79.99 104.955 79.9372C105.246 79.8968 105.761 79.818 106.26 79.5297L104.76 76.9317ZM104.789 76.8224C104.811 76.8607 104.798 76.9096 104.76 76.9317L106.26 79.5297C107.733 78.6792 108.238 76.7955 107.387 75.3224L104.789 76.8224ZM103.799 75.8734C103.951 76.0579 104.109 76.2069 104.238 76.3201C104.355 76.4225 104.499 76.5392 104.569 76.5974C104.766 76.7611 104.77 76.7887 104.752 76.7583L107.35 75.2583C107.077 74.785 106.696 74.4649 106.49 74.2929C106.219 74.067 106.161 74.0224 106.112 73.9636L103.799 75.8734ZM102.988 73.7029C102.984 73.6951 102.997 73.7147 103.018 73.7914C103.042 73.8744 103.062 73.9722 103.095 74.1374C103.146 74.3982 103.241 74.9606 103.528 75.476L106.15 74.0189C106.152 74.0229 106.138 73.9989 106.116 73.9174C106.092 73.8291 106.072 73.7288 106.038 73.5591C105.985 73.2895 105.887 72.723 105.586 72.2029L102.988 73.7029ZM101.313 71.8012C101.644 72.3739 102.15 72.7662 102.378 72.9527C102.525 73.0722 102.61 73.1431 102.679 73.2104C102.742 73.2724 102.752 73.294 102.745 73.2823L105.344 71.7823C105.013 71.2096 104.506 70.8173 104.278 70.6308C104.132 70.5113 104.047 70.4403 103.978 70.373C103.914 70.311 103.904 70.2895 103.911 70.3012L101.313 71.8012ZM99.1772 68.0983C99.5088 68.6261 99.9907 69.0013 100.21 69.1825C100.349 69.2975 100.433 69.3685 100.499 69.4341C100.56 69.4951 100.573 69.5187 100.569 69.5118L103.167 68.0118C102.842 67.4501 102.356 67.0641 102.121 66.8699C101.974 66.7485 101.885 66.6752 101.809 66.6023C101.775 66.5696 101.752 66.5453 101.737 66.5277C101.723 66.5104 101.717 66.5022 101.718 66.5024L99.1772 68.0983ZM96.9796 64.2956C97.3103 64.8684 97.8171 65.2607 98.0451 65.4472C98.1912 65.5667 98.2763 65.6376 98.3454 65.7049C98.409 65.7669 98.4188 65.7884 98.4121 65.7767L101.01 64.2767C100.68 63.704 100.173 63.3117 99.9447 63.1252C99.7987 63.0057 99.7135 62.9348 99.6444 62.8675C99.5808 62.8055 99.571 62.784 99.5777 62.7956L96.9796 64.2956ZM78.0304 68.6905C78.5582 68.359 78.9334 67.8771 79.1146 67.6578C79.2295 67.5187 79.3006 67.4352 79.3662 67.369C79.4271 67.3075 79.4508 67.2953 79.4439 67.2992L77.9439 64.7012C77.3822 65.0255 76.9962 65.5118 76.802 65.7468C76.6806 65.8938 76.6073 65.9823 76.5344 66.0585C76.5017 66.0927 76.4774 66.1154 76.4598 66.1304C76.4425 66.1452 76.4343 66.1504 76.4345 66.1502L78.0304 68.6905ZM96.4132 62.3145C96.4065 62.3029 96.4202 62.3221 96.4421 62.4082C96.4658 62.5017 96.4847 62.6109 96.5151 62.7972C96.5627 63.0878 96.649 63.7229 96.9796 64.2956L99.5777 62.7956C99.5845 62.8073 99.5707 62.7881 99.5488 62.702C99.5251 62.6085 99.5063 62.4993 99.4758 62.313C99.4283 62.0223 99.3419 61.3872 99.0113 60.8145L96.4132 62.3145ZM93.6422 83.3506C93.6539 83.3438 93.6346 83.3576 93.5485 83.3794C93.455 83.4032 93.3458 83.422 93.1596 83.4525C92.8689 83.5 92.2338 83.5863 91.6611 83.917L93.1611 86.5151C93.1494 86.5218 93.1687 86.5081 93.2548 86.4862C93.3483 86.4624 93.4575 86.4436 93.6437 86.4132C93.9344 86.3656 94.5695 86.2793 95.1422 85.9486L93.6422 83.3506ZM94.8439 60.5927C95.1755 61.1205 95.6574 61.4958 95.8767 61.677C96.0158 61.7919 96.0992 61.8629 96.1654 61.9285C96.227 61.9895 96.2392 62.0131 96.2352 62.0063L98.8333 60.5063C98.509 59.9445 98.0226 59.5585 97.7877 59.3644C97.6407 59.2429 97.5521 59.1696 97.4759 59.0967C97.4418 59.0641 97.4191 59.0398 97.404 59.0222C97.3893 59.0049 97.3841 58.9967 97.3842 58.9968L94.8439 60.5927ZM97.4495 81.1524C97.4563 81.1485 97.4339 81.1628 97.3502 81.1849C97.26 81.2086 97.1522 81.2284 96.9743 81.2583C96.6938 81.3056 96.0889 81.3896 95.5378 81.681L96.9398 84.3332C96.9396 84.3333 96.9482 84.3287 96.9696 84.3211C96.9915 84.3134 97.0233 84.3037 97.0692 84.2925C97.1716 84.2675 97.285 84.2483 97.473 84.2166C97.7735 84.1659 98.3877 84.0748 98.9495 83.7505L97.4495 81.1524ZM77.0595 69.9658C76.9027 69.8071 76.7442 69.678 76.619 69.5809C76.5559 69.5319 76.4936 69.4852 76.442 69.4466C76.3872 69.4055 76.3438 69.373 76.3022 69.3409C76.1198 69.2001 76.1278 69.1792 76.1557 69.2274L73.5576 70.7274C73.8408 71.218 74.2372 71.5367 74.469 71.7156C74.7743 71.9513 74.8399 71.9878 74.925 72.0739L77.0595 69.9658ZM94.307 58.718C94.3125 58.7148 94.3149 58.7146 94.316 58.7144C94.3182 58.7142 94.3219 58.7142 94.3266 58.7154C94.3312 58.7167 94.3345 58.7186 94.3362 58.7199C94.3371 58.7205 94.339 58.722 94.3422 58.7274L96.9403 57.2274C96.1047 55.7802 94.2542 55.2844 92.807 56.1199L94.307 58.718ZM85.6081 64.3155C86.1359 63.984 86.5111 63.5021 86.6923 63.2828C86.8073 63.1437 86.8783 63.0602 86.9439 62.994C87.0049 62.9325 87.0285 62.9203 87.0216 62.9242L85.5216 60.3262C84.9599 60.6505 84.5739 61.1368 84.3797 61.3718C84.2583 61.5188 84.185 61.6073 84.1121 61.6835C84.0795 61.7177 84.0551 61.7404 84.0375 61.7554C84.0203 61.7702 84.012 61.7754 84.0122 61.7752L85.6081 64.3155ZM100.747 69.8201C100.74 69.8084 100.754 69.8277 100.775 69.9138C100.799 70.0073 100.818 70.1165 100.848 70.3027C100.896 70.5934 100.982 71.2285 101.313 71.8012L103.911 70.3012C103.918 70.3129 103.904 70.2936 103.882 70.2075C103.858 70.114 103.84 70.0048 103.809 69.8186C103.762 69.5279 103.675 68.8928 103.345 68.3201L100.747 69.8201ZM99.1667 79.5837C98.5939 79.9143 98.2016 80.4212 98.0151 80.6491C97.8956 80.7952 97.8247 80.8803 97.7574 80.9494C97.6954 81.0131 97.6739 81.0229 97.6856 81.0161L99.1856 83.6142C99.7583 83.2835 100.151 82.7767 100.337 82.5487C100.457 82.4027 100.527 82.3175 100.595 82.2484C100.657 82.1848 100.678 82.175 100.667 82.1817L99.1667 79.5837ZM93.4322 59.6527C93.6038 59.5038 93.743 59.3509 93.8484 59.228C93.9385 59.1229 94.0584 58.9735 94.1069 58.9149C94.2586 58.7315 94.2817 58.7326 94.2443 58.7542L92.7443 56.1561C92.2791 56.4247 91.9662 56.7962 91.7956 57.0024C91.5716 57.2731 91.5308 57.3306 91.4662 57.3867L93.4322 59.6527ZM101.148 79.0172C101.159 79.0105 101.14 79.0242 101.054 79.0461C100.961 79.0698 100.851 79.0887 100.665 79.1191C100.374 79.1667 99.7394 79.253 99.1667 79.5837L100.667 82.1817C100.655 82.1885 100.674 82.1747 100.76 82.1529C100.854 82.1291 100.963 82.1103 101.149 82.0798C101.44 82.0323 102.075 81.946 102.648 81.6153L101.148 79.0172ZM79.6591 74.2956C79.3285 73.7229 78.8216 73.3306 78.5937 73.1441C78.4476 73.0246 78.3625 72.9537 78.2934 72.8864C78.2297 72.8244 78.2199 72.8029 78.2267 72.8145L75.6286 74.3145C75.9593 74.8872 76.4661 75.2796 76.6941 75.4661C76.8401 75.5856 76.9253 75.6565 76.9944 75.7238C77.058 75.7858 77.0678 75.8073 77.0611 75.7956L79.6591 74.2956ZM89.2921 58.1493C88.7194 58.4799 88.3271 58.9868 88.1406 59.2147C88.0211 59.3608 87.9502 59.446 87.8828 59.5151C87.8208 59.5787 87.7993 59.5885 87.811 59.5817L89.311 62.1798C89.8837 61.8492 90.276 61.3423 90.4625 61.1144C90.582 60.9683 90.6529 60.8831 90.7203 60.8141C90.7822 60.7504 90.8038 60.7406 90.7921 60.7474L89.2921 58.1493ZM76.1557 69.2274C76.1525 69.222 76.1522 69.2195 76.1521 69.2185C76.1518 69.2163 76.1518 69.2126 76.1531 69.2079C76.1543 69.2032 76.1562 69.2 76.1575 69.1983C76.1582 69.1974 76.1596 69.1954 76.1651 69.1923L74.6651 66.5942C73.2179 67.4297 72.722 69.2802 73.5576 70.7274L76.1557 69.2274ZM94.3422 58.7274C94.3143 58.6792 94.3364 58.6827 94.3672 58.911C94.3742 58.9631 94.3806 59.017 94.3888 59.085C94.3965 59.149 94.4058 59.2262 94.4166 59.3054C94.4382 59.4624 94.4707 59.6643 94.5297 59.8793L97.4226 59.0849C97.3906 58.9681 97.3918 58.8931 97.3403 58.5109C97.3013 58.2206 97.2235 57.718 96.9403 57.2274L94.3422 58.7274ZM81.7333 66.5548C82.306 66.2242 82.6983 65.7173 82.8848 65.4894C83.0043 65.3433 83.0752 65.2581 83.1425 65.1891C83.2045 65.1254 83.226 65.1156 83.2144 65.1224L81.7144 62.5243C81.1417 62.8549 80.7494 63.3618 80.5629 63.5897C80.4434 63.7358 80.3724 63.821 80.3051 63.8901C80.2431 63.9537 80.2216 63.9635 80.2333 63.9567L81.7333 66.5548ZM98.5484 66.0128C98.5445 66.006 98.5588 66.0284 98.5808 66.1121C98.6046 66.2023 98.6243 66.3101 98.6543 66.488C98.7016 66.7685 98.7856 67.3734 99.0769 67.9245L101.729 66.5225C101.729 66.5227 101.725 66.5141 101.717 66.4927C101.709 66.4708 101.7 66.439 101.688 66.3931C101.663 66.2907 101.644 66.1773 101.613 65.9893C101.562 65.6888 101.471 65.0746 101.146 64.5128L98.5484 66.0128ZM102.87 77.4479C102.342 77.7795 101.967 78.2614 101.785 78.4807C101.67 78.6198 101.599 78.7033 101.534 78.7695C101.473 78.831 101.449 78.8432 101.456 78.8392L102.956 81.4373C103.518 81.113 103.904 80.6266 104.098 80.3917C104.219 80.2447 104.293 80.1561 104.366 80.0799C104.398 80.0458 104.423 80.0231 104.44 80.0081C104.457 79.9933 104.466 79.9881 104.465 79.9882L102.87 77.4479ZM91.2127 60.5045C91.2049 60.509 91.2245 60.4962 91.3012 60.4745C91.3842 60.451 91.482 60.4307 91.6472 60.3983C91.908 60.347 92.4704 60.2515 92.9858 59.9651L91.5287 57.3427C91.5327 57.3405 91.5087 57.3544 91.4272 57.3768C91.3389 57.401 91.2386 57.4212 91.0689 57.4545C90.7993 57.5075 90.2328 57.6062 89.7127 57.9065L91.2127 60.5045Z" fill="#17120F" mask="url(#path-26-inside-4)"/>
</svg>
