<svg width="24" height="24" viewBox="0 0 24 24" fill="none" xmlns="http://www.w3.org/2000/svg">
<path d="M4 22.27L20 22.27" stroke="#AAA7A5" stroke-width="2" stroke-linecap="round"/>
<path fill-rule="evenodd" clip-rule="evenodd" d="M11.3596 17.0382C11.7569 17.3693 12.3412 17.3428 12.7069 16.9771L18.7069 10.9771C19.0974 10.5866 19.0974 9.95343 18.7069 9.56291C18.3164 9.17238 17.6832 9.17238 17.2927 9.56291L13 13.8556L13 2.27C13 1.71772 12.5523 1.27 12 1.27C11.4477 1.27 11 1.71772 11 2.27L11 14.1352L6.63996 10.5018C6.21569 10.1482 5.58512 10.2056 5.23156 10.6298C4.878 11.0541 4.93532 11.6847 5.3596 12.0382L11.3596 17.0382Z" fill="#AAA7A5"/>
</svg>
