<svg width="175" height="184" viewBox="0 0 175 184" fill="none" xmlns="http://www.w3.org/2000/svg">
<path d="M86.0068 67.2603L104.912 62.1946L103.816 67.5541L107.445 71.6473L88.5397 76.713L86.0068 67.2603Z" fill="#F4F4F4"/>
<path fill-rule="evenodd" clip-rule="evenodd" d="M103.816 67.5541L104.912 62.1946L86.0068 67.2603L88.5397 76.713L107.445 71.6473L103.816 67.5541ZM104.713 70.8266L102.196 67.9882L102.956 64.2716L87.844 68.3209L89.6003 74.8758L104.713 70.8266Z" fill="#17120F"/>
<path d="M80.5541 86.1907C80.542 85.6385 80.9798 85.1811 81.532 85.1691L130.898 84.0908C131.45 84.0788 131.907 84.5166 131.919 85.0688L133.211 144.218C133.223 144.77 132.785 145.228 132.233 145.24L82.8676 146.318C82.3155 146.33 81.8581 145.892 81.846 145.34L80.5541 86.1907Z" fill="#F4F4F4"/>
<path fill-rule="evenodd" clip-rule="evenodd" d="M82.0646 86.6578L83.3347 144.807L131.701 143.751L130.43 85.6014L82.0646 86.6578ZM81.532 85.1691C80.9798 85.1811 80.542 85.6385 80.5541 86.1907L81.846 145.34C81.8581 145.892 82.3155 146.33 82.8676 146.318L132.233 145.24C132.785 145.228 133.223 144.77 133.211 144.218L131.919 85.0688C131.907 84.5166 131.45 84.0788 130.898 84.0908L81.532 85.1691Z" fill="#17120F"/>
<path d="M86.8244 93.1716C86.8003 92.0673 87.676 91.1526 88.7803 91.1284L123.917 90.361C125.021 90.3369 125.936 91.2125 125.96 92.3168L126.647 123.784C126.671 124.889 125.796 125.803 124.691 125.827L89.555 126.595C88.4506 126.619 87.5359 125.743 87.5118 124.639L86.8244 93.1716Z" fill="#F4F4F4"/>
<path fill-rule="evenodd" clip-rule="evenodd" d="M123.949 91.8606L88.813 92.6281C88.537 92.6341 88.318 92.8628 88.3241 93.1389L89.0114 124.606C89.0174 124.882 89.2461 125.101 89.5222 125.095L124.658 124.328C124.935 124.322 125.153 124.093 125.147 123.817L124.46 92.3496C124.454 92.0735 124.225 91.8546 123.949 91.8606ZM88.7803 91.1284C87.676 91.1526 86.8003 92.0673 86.8244 93.1716L87.5118 124.639C87.5359 125.743 88.4506 126.619 89.555 126.595L124.691 125.827C125.796 125.803 126.671 124.889 126.647 123.784L125.96 92.3168C125.936 91.2125 125.021 90.3369 123.917 90.361L88.7803 91.1284Z" fill="#17120F"/>
<path d="M9.81396 71.2126L81.253 52.0706C85.5208 50.9271 89.9075 53.4597 91.051 57.7275L116.354 152.16C117.498 156.428 114.965 160.815 110.697 161.958L39.2583 181.1L9.81396 71.2126Z" fill="#CCCCCC"/>
<path fill-rule="evenodd" clip-rule="evenodd" d="M81.6413 53.5195L11.6511 72.2733L40.319 179.263L110.309 160.509C113.777 159.58 115.834 156.016 114.905 152.549L89.6021 58.1157C88.673 54.6482 85.1088 52.5904 81.6413 53.5195ZM9.81396 71.2126L39.2583 181.1L110.697 161.958C114.965 160.815 117.498 156.428 116.354 152.16L91.051 57.7275C89.9075 53.4597 85.5208 50.9271 81.253 52.0706L9.81396 71.2126Z" fill="#17120F"/>
<path fill-rule="evenodd" clip-rule="evenodd" d="M12.8577 82.5714C9.34238 83.5134 7.25622 87.1267 8.19816 90.6421C9.14009 94.1574 12.7534 96.2436 16.2688 95.3016L16.657 96.7505C12.3415 97.9069 7.90561 95.3458 6.74927 91.0303C5.59292 86.7147 8.15396 82.2789 12.4695 81.1226C16.785 79.9662 21.2209 82.5272 22.3772 86.8428L20.9283 87.231C19.9864 83.7157 16.3731 81.6295 12.8577 82.5714Z" fill="#17120F"/>
<path fill-rule="evenodd" clip-rule="evenodd" d="M17.9234 101.477C14.4081 102.419 12.3219 106.032 13.2638 109.548C14.2058 113.063 17.8191 115.149 21.3344 114.207L21.7227 115.656C17.4071 116.812 12.9713 114.251 11.8149 109.936C10.6586 105.62 13.2196 101.184 17.5352 100.028C21.8507 98.8717 26.2866 101.433 27.4429 105.748L25.994 106.137C25.0521 102.621 21.4387 100.535 17.9234 101.477Z" fill="#17120F"/>
<path fill-rule="evenodd" clip-rule="evenodd" d="M22.9891 120.382C19.4737 121.324 17.3876 124.938 18.3295 128.453C19.2714 131.968 22.8848 134.055 26.4001 133.113L26.7883 134.562C22.4728 135.718 18.037 133.157 16.8806 128.841C15.7243 124.526 18.2853 120.09 22.6008 118.934C26.9164 117.777 31.3522 120.338 32.5086 124.654L31.0597 125.042C30.1178 121.527 26.5044 119.441 22.9891 120.382Z" fill="#17120F"/>
<path fill-rule="evenodd" clip-rule="evenodd" d="M28.0547 139.288C24.5394 140.23 22.4532 143.843 23.3952 147.359C24.3371 150.874 27.9504 152.96 31.4658 152.018L31.854 153.467C27.5385 154.623 23.1026 152.062 21.9463 147.747C20.7899 143.431 23.351 138.995 27.6665 137.839C31.9821 136.683 36.4179 139.244 37.5742 143.559L36.1254 143.948C35.1834 140.432 31.5701 138.346 28.0547 139.288Z" fill="#17120F"/>
<path fill-rule="evenodd" clip-rule="evenodd" d="M33.1204 158.193C29.6051 159.135 27.5189 162.749 28.4609 166.264C29.4028 169.779 33.0161 171.865 36.5315 170.923L36.9197 172.372C32.6041 173.529 28.1683 170.968 27.012 166.652C25.8556 162.337 28.4167 157.901 32.7322 156.744C37.0477 155.588 41.4836 158.149 42.6399 162.465L41.191 162.853C40.2491 159.338 36.6358 157.251 33.1204 158.193Z" fill="#17120F"/>
<path d="M28.9432 85.8877C28.6573 84.8207 29.2905 83.7241 30.3574 83.4382L76.1204 71.176C77.1874 70.8901 78.284 71.5233 78.5699 72.5902L84.1834 93.5399C84.4692 94.6068 83.8361 95.7035 82.7691 95.9894L37.0061 108.252C35.9392 108.537 34.8425 107.904 34.5566 106.837L28.9432 85.8877Z" fill="#F4F4F4"/>
<path fill-rule="evenodd" clip-rule="evenodd" d="M76.5087 72.6249L30.7456 84.8871C30.4789 84.9585 30.3206 85.2327 30.3921 85.4994L36.0055 106.449C36.077 106.716 36.3511 106.874 36.6179 106.803L82.3809 94.5405C82.6477 94.469 82.8059 94.1948 82.7345 93.9281L77.121 72.9784C77.0496 72.7117 76.7754 72.5534 76.5087 72.6249ZM30.3574 83.4382C29.2905 83.7241 28.6573 84.8207 28.9432 85.8877L34.5566 106.837C34.8425 107.904 35.9392 108.537 37.0061 108.252L82.7691 95.9894C83.8361 95.7035 84.4692 94.6068 84.1834 93.5399L78.5699 72.5902C78.284 71.5233 77.1874 70.8901 76.1204 71.176L30.3574 83.4382Z" fill="#17120F"/>
<path fill-rule="evenodd" clip-rule="evenodd" d="M73.0322 91.5914L42.3108 99.8232L41.9226 98.3743L72.6439 90.1425L73.0322 91.5914Z" fill="#17120F"/>
<path d="M62.9832 87.9659C62.8402 87.4325 63.1568 86.8841 63.6903 86.7412L111.385 73.9614C111.919 73.8184 112.467 74.135 112.61 74.6685L127.923 131.816C128.066 132.35 127.749 132.898 127.215 133.041L79.5206 145.821C78.9871 145.964 78.4388 145.647 78.2958 145.114L62.9832 87.9659Z" fill="#F4F4F4"/>
<path fill-rule="evenodd" clip-rule="evenodd" d="M64.5615 88.0607L79.6153 144.242L126.344 131.721L111.29 75.5397L64.5615 88.0607ZM63.6903 86.7412C63.1568 86.8841 62.8402 87.4325 62.9832 87.9659L78.2958 145.114C78.4388 145.647 78.9871 145.964 79.5206 145.821L127.215 133.041C127.749 132.898 128.066 132.35 127.923 131.816L112.61 74.6685C112.467 74.135 111.919 73.8184 111.385 73.9614L63.6903 86.7412Z" fill="#17120F"/>
<path d="M70.6778 93.3015C70.3919 92.2345 71.0251 91.1379 72.092 90.852L106.039 81.7559C107.106 81.47 108.203 82.1032 108.489 83.1701L116.616 113.502C116.902 114.569 116.269 115.666 115.202 115.952L81.2548 125.048C80.1878 125.334 79.0911 124.701 78.8053 123.634L70.6778 93.3015Z" fill="#B7CDCF"/>
<path fill-rule="evenodd" clip-rule="evenodd" d="M106.427 83.2048L72.4802 92.3009C72.2135 92.3724 72.0552 92.6465 72.1267 92.9133L80.2541 123.245C80.3256 123.512 80.5998 123.67 80.8665 123.599L114.814 114.503C115.08 114.431 115.239 114.157 115.167 113.89L107.04 83.5583C106.968 83.2916 106.694 83.1333 106.427 83.2048ZM72.092 90.852C71.0251 91.1379 70.3919 92.2345 70.6778 93.3015L78.8053 123.634C79.0911 124.701 80.1878 125.334 81.2548 125.048L115.202 115.952C116.269 115.666 116.902 114.569 116.616 113.502L108.489 83.1701C108.203 82.1032 107.106 81.47 106.039 81.7559L72.092 90.852Z" fill="#17120F"/>
<path d="M89.3944 108.273C90.8391 107.954 93.3695 108.786 101.157 102.111C104.223 99.4832 107.866 97.7491 111.342 96.6638L114.932 110.062L91.768 116.004L89.3944 108.273Z" fill="#D1BFA1"/>
<path fill-rule="evenodd" clip-rule="evenodd" d="M88.439 107.716L91.2612 116.909L115.853 110.601L111.865 95.7153L111.119 95.9481C107.573 97.0551 103.832 98.8311 100.669 101.542C96.8119 104.848 94.3087 106.249 92.6353 106.873C91.8044 107.183 91.1668 107.305 90.6527 107.37C90.4444 107.396 90.2591 107.413 90.0756 107.43C90.0256 107.434 89.9757 107.439 89.9256 107.444C89.7022 107.464 89.4634 107.49 89.2328 107.54L88.439 107.716ZM93.1593 108.278C95.0591 107.57 97.7148 106.05 101.645 102.681C104.399 100.32 107.648 98.6935 110.823 97.6215L114.012 109.525L92.2751 115.1L90.3743 108.909C90.5175 108.895 90.6746 108.879 90.841 108.858C91.4509 108.781 92.2036 108.635 93.1593 108.278Z" fill="#17120F"/>
<path d="M114.713 109.244C111.009 109.272 105.793 109 98.9165 108.083C88.5945 106.706 80.9143 109.425 76.6367 112.029L79.9687 124.465L116.191 114.759L114.713 109.244Z" fill="#687A9E"/>
<path fill-rule="evenodd" clip-rule="evenodd" d="M98.8173 108.826C88.6774 107.474 81.1685 110.148 77.0266 112.67L76.2466 111.389C80.6598 108.702 88.5113 105.939 99.0155 107.339C105.863 108.252 111.043 108.521 114.707 108.494L114.719 109.994C110.974 110.022 105.723 109.747 98.8173 108.826Z" fill="#17120F"/>
<path fill-rule="evenodd" clip-rule="evenodd" d="M106.483 83.1601L72.5354 92.2562C72.2687 92.3277 72.1104 92.6018 72.1819 92.8686L80.3282 123.271C80.3996 123.538 80.6738 123.696 80.9405 123.625L114.888 114.528C115.154 114.457 115.313 114.183 115.241 113.916L107.095 83.5136C107.023 83.2469 106.749 83.0886 106.483 83.1601ZM72.1472 90.8073C71.0803 91.0932 70.4471 92.1899 70.733 93.2568L78.8793 123.659C79.1651 124.726 80.2618 125.359 81.3288 125.073L115.276 115.977C116.343 115.691 116.976 114.595 116.69 113.528L108.544 83.1254C108.258 82.0585 107.161 81.4253 106.094 81.7112L72.1472 90.8073Z" fill="#17120F"/>
<path d="M128.623 70.3589L134.839 66.4571L170.074 122.596C170.367 123.064 170.226 123.681 169.758 123.974L165.236 126.813C164.768 127.107 164.151 126.965 163.857 126.498L128.623 70.3589Z" fill="#555555"/>
<path fill-rule="evenodd" clip-rule="evenodd" d="M134.366 68.525L130.69 70.832L164.862 125.277L168.537 122.97L134.366 68.525ZM128.623 70.3589L163.857 126.498C164.151 126.965 164.768 127.107 165.236 126.813L169.758 123.974C170.226 123.681 170.367 123.064 170.074 122.596L134.839 66.4571L128.623 70.3589Z" fill="#17120F"/>
<path fill-rule="evenodd" clip-rule="evenodd" d="M166.053 116.19L160.873 119.441L160.075 118.171L165.256 114.919L166.053 116.19Z" fill="#17120F"/>
<path fill-rule="evenodd" clip-rule="evenodd" d="M164.102 113.082L158.922 116.333L158.125 115.063L163.305 111.812L164.102 113.082Z" fill="#17120F"/>
<path fill-rule="evenodd" clip-rule="evenodd" d="M123.349 56.8967L124.745 56.0207L128.454 60.6447L134.765 66.9702L133.703 68.0296L128.087 62.4L130.452 70.2844L129.016 70.7154L126.389 61.9621L123.349 56.8967Z" fill="#17120F"/>
<path d="M59.1292 138.5L61.5096 137.862C61.544 137.853 61.6038 137.848 61.708 137.88C61.8161 137.913 61.9436 137.978 62.087 138.072C62.6812 138.465 63.4371 138.612 64.1808 138.413C64.9245 138.213 65.5056 137.708 65.824 137.071C65.9009 136.918 65.979 136.798 66.056 136.715C66.1302 136.635 66.1843 136.609 66.2188 136.6L69.397 135.748C69.5303 135.713 69.6674 135.792 69.7032 135.925L70.2382 137.922C70.2474 137.956 70.252 138.016 70.2199 138.12C70.1866 138.228 70.1221 138.356 70.0275 138.499C69.6352 139.093 69.4882 139.849 69.6875 140.593C69.8868 141.337 70.3919 141.918 71.0288 142.236C71.1825 142.313 71.302 142.391 71.3849 142.468C71.4648 142.542 71.4908 142.597 71.5 142.631L72.1378 145.011C72.147 145.046 72.1516 145.106 72.1195 145.21C72.0862 145.318 72.0218 145.445 71.9271 145.589C71.5348 146.183 71.3878 146.939 71.5871 147.683C71.7864 148.426 72.2916 149.007 72.9285 149.326C73.0821 149.403 73.2017 149.481 73.2846 149.558C73.3644 149.632 73.3904 149.686 73.3996 149.721L74.0374 152.101C74.0467 152.135 74.0512 152.195 74.0192 152.299C73.9859 152.407 73.9214 152.535 73.8268 152.678C73.4344 153.273 73.2875 154.028 73.4868 154.772C73.686 155.516 74.1912 156.097 74.8281 156.415C74.9818 156.492 75.1013 156.57 75.1842 156.647C75.2641 156.722 75.29 156.776 75.2993 156.81L76.1509 159.988C76.1866 160.122 76.1074 160.259 75.9741 160.294L72.7959 161.146C72.7614 161.155 72.7016 161.16 72.5974 161.128C72.4893 161.095 72.3618 161.03 72.2185 160.935C71.6242 160.543 70.8684 160.396 70.1247 160.595C69.3809 160.795 68.7999 161.3 68.4814 161.937C68.4046 162.09 68.3264 162.21 68.2494 162.293C68.1752 162.373 68.1211 162.399 68.0867 162.408L65.7063 163.046C65.6719 163.055 65.6121 163.06 65.5079 163.027C65.3997 162.994 65.2723 162.93 65.1289 162.835C64.5347 162.443 63.7788 162.296 63.0351 162.495C62.2914 162.694 61.7103 163.199 61.3918 163.836C61.315 163.99 61.2369 164.11 61.1599 164.193C61.0857 164.272 61.0316 164.298 60.9971 164.308L58.6168 164.945C58.5824 164.955 58.5225 164.959 58.4183 164.927C58.3102 164.894 58.1827 164.829 58.0394 164.735C57.4451 164.342 56.6893 164.195 55.9456 164.395C55.2019 164.594 54.6208 165.099 54.3023 165.736C54.2255 165.89 54.1473 166.009 54.0703 166.092C53.9961 166.172 53.942 166.198 53.9076 166.207L51.911 166.742C51.7776 166.778 51.6405 166.699 51.6048 166.565L50.7532 163.387C50.744 163.353 50.7394 163.293 50.7714 163.189C50.8047 163.081 50.8692 162.953 50.9638 162.81C51.3562 162.216 51.5031 161.46 51.3039 160.716C51.1046 159.972 50.5994 159.391 49.9625 159.073C49.8089 158.996 49.6893 158.918 49.6064 158.841C49.5265 158.767 49.5006 158.712 49.4914 158.678L48.8536 156.298C48.8443 156.263 48.8397 156.203 48.8718 156.099C48.9051 155.991 48.9696 155.864 49.0642 155.72C49.4565 155.126 49.6035 154.37 49.4042 153.626C49.2049 152.883 48.6998 152.302 48.0629 151.983C47.9092 151.906 47.7897 151.828 47.7068 151.751C47.6269 151.677 47.6009 151.623 47.5917 151.588L46.9539 149.208C46.9447 149.174 46.9401 149.114 46.9722 149.01C47.0055 148.902 47.0699 148.774 47.1646 148.631C47.5569 148.036 47.7039 147.281 47.5046 146.537C47.3053 145.793 46.8001 145.212 46.1632 144.894C46.0096 144.817 45.89 144.739 45.8071 144.662C45.7273 144.587 45.7013 144.533 45.6921 144.499L45.1571 142.502C45.1214 142.369 45.2005 142.232 45.3339 142.196L47.3305 141.661C47.3649 141.652 47.4248 141.647 47.5289 141.679C47.6371 141.713 47.7645 141.777 47.9079 141.872C48.5022 142.264 49.258 142.411 50.0017 142.212C50.7454 142.012 51.3265 141.507 51.645 140.87C51.7218 140.717 51.8 140.597 51.877 140.514C51.9511 140.434 52.0053 140.408 52.0397 140.399L54.42 139.761C54.4545 139.752 54.5143 139.748 54.6185 139.78C54.7266 139.813 54.8541 139.877 54.9974 139.972C55.5917 140.364 56.3475 140.511 57.0912 140.312C57.8349 140.113 58.416 139.608 58.7345 138.971C58.8113 138.817 58.8895 138.698 58.9665 138.615C59.0407 138.535 59.0948 138.509 59.1292 138.5Z" fill="#F4F4F4" stroke="#17120F" stroke-width="1.5"/>
<line x1="54.9531" y1="158.328" x2="64.4058" y2="155.795" stroke="#17120F" stroke-width="1.5"/>
<rect x="52.5831" y="146.586" width="13.1793" height="7.0629" transform="rotate(-15 52.5831 146.586)" fill="#F3E2C6" stroke="#17120F" stroke-width="1.5"/>
<path fill-rule="evenodd" clip-rule="evenodd" d="M95.7984 4.83794C97.1083 4.20042 98.8358 4.03777 100.589 4.50744C102.962 5.14329 104.715 6.75956 105.201 8.53126C106.135 8.37762 107.128 8.41702 108.118 8.68232C111.031 9.4629 112.99 11.9507 113.034 14.6242C116.372 15.9404 118.734 19.1944 118.734 23C118.734 26.6244 116.591 29.7484 113.504 31.1747C112.237 38.4604 105.882 44 98.2339 44C94.6569 44 91.3629 42.7883 88.7399 40.753C87.3699 42.1349 85.4101 43 83.2339 43C79.8347 43 76.9637 40.8894 76.0431 37.9957C75.9404 37.9986 75.8373 38 75.7339 38C69.6588 38 64.7339 33.0751 64.7339 27C64.7339 23.5265 66.3439 20.429 68.8583 18.4131C68.7765 17.9544 68.7339 17.4822 68.7339 17C68.7339 12.5817 72.3156 9 76.7339 9C77.0357 9 77.3337 9.01672 77.6268 9.04928C79.3665 4.90814 83.4606 2 88.2339 2C91.1302 2 93.7765 3.07073 95.7984 4.83794Z" fill="#F4F4F4"/>
<path fill-rule="evenodd" clip-rule="evenodd" d="M96.4549 6.18668C95.9127 6.45055 95.2653 6.36415 94.8113 5.96736C93.0523 4.42991 90.7535 3.5 88.2339 3.5C84.0855 3.5 80.5238 6.0263 79.0097 9.63024C78.7523 10.2432 78.122 10.6135 77.4613 10.5401C77.223 10.5136 76.9803 10.5 76.7339 10.5C73.144 10.5 70.2339 13.4101 70.2339 17C70.2339 17.3935 70.2687 17.7777 70.335 18.1499C70.4313 18.6903 70.2248 19.2401 69.7966 19.5834C67.622 21.3269 66.2339 24.0008 66.2339 27C66.2339 32.2467 70.4872 36.5 75.7339 36.5C75.8235 36.5 75.9128 36.4988 76.0017 36.4963C76.67 36.4779 77.2699 36.9039 77.4725 37.541C78.1832 39.775 80.4481 41.5 83.2339 41.5C85.0099 41.5 86.5862 40.7948 87.6747 39.697C88.2086 39.1585 89.0604 39.1031 89.6595 39.568C92.0287 41.4063 95.0014 42.5 98.2339 42.5C105.14 42.5 110.882 37.4973 112.026 30.9176C112.111 30.4324 112.428 30.0195 112.875 29.813C115.451 28.6228 117.234 26.018 117.234 23C117.234 19.831 115.268 17.1175 112.484 16.0197C111.919 15.7969 111.544 15.2557 111.534 14.6486C111.502 12.698 110.049 10.7526 107.73 10.1312C106.947 9.92147 106.169 9.89211 105.445 10.0114C104.687 10.136 103.958 9.66849 103.754 8.92809C103.443 7.79127 102.193 6.49025 100.2 5.95633C98.754 5.56877 97.4025 5.72547 96.4549 6.18668ZM105.201 8.53126C104.715 6.75956 102.962 5.14329 100.589 4.50744C98.8358 4.03777 97.1083 4.20042 95.7984 4.83794C93.7765 3.07073 91.1302 2 88.2339 2C83.4606 2 79.3665 4.90814 77.6268 9.04928C77.3337 9.01672 77.0357 9 76.7339 9C72.3156 9 68.7339 12.5817 68.7339 17C68.7339 17.4822 68.7765 17.9544 68.8583 18.4131C66.3439 20.429 64.7339 23.5265 64.7339 27C64.7339 33.0751 69.6588 38 75.7339 38C75.8373 38 75.9404 37.9986 76.0431 37.9957C76.9637 40.8894 79.8347 43 83.2339 43C85.4101 43 87.3699 42.1349 88.7399 40.753C91.3629 42.7883 94.6569 44 98.2339 44C105.882 44 112.237 38.4604 113.504 31.1747C116.591 29.7484 118.734 26.6244 118.734 23C118.734 19.1944 116.372 15.9404 113.034 14.6242C112.99 11.9507 111.031 9.4629 108.118 8.68232C107.128 8.41702 106.135 8.37762 105.201 8.53126Z" fill="#17120F"/>
<path d="M111.734 48.5C111.734 49.8807 110.615 51 109.234 51C107.853 51 106.734 49.8807 106.734 48.5C106.734 47.1193 107.853 46 109.234 46C110.615 46 111.734 47.1193 111.734 48.5Z" fill="#F4F4F4"/>
<path fill-rule="evenodd" clip-rule="evenodd" d="M109.234 46.75C108.267 46.75 107.484 47.5335 107.484 48.5C107.484 49.4665 108.267 50.25 109.234 50.25C110.2 50.25 110.984 49.4665 110.984 48.5C110.984 47.5335 110.2 46.75 109.234 46.75ZM105.984 48.5C105.984 46.7051 107.439 45.25 109.234 45.25C111.029 45.25 112.484 46.7051 112.484 48.5C112.484 50.2949 111.029 51.75 109.234 51.75C107.439 51.75 105.984 50.2949 105.984 48.5Z" fill="#17120F"/>
<path d="M84.775 16.8638C85.3848 16.8638 85.6677 17.6266 85.6677 18.422C85.6677 18.7196 85.5189 18.8684 85.2213 18.8684H84.5559C84.2583 18.8684 84.1095 18.7196 84.1095 18.422V17.5293C84.1095 17.3183 84.3286 16.8638 84.775 16.8638Z" fill="#17120F"/>
<path d="M84.3286 28.6397C84.3286 29.9707 84.775 30.6362 85.6677 30.6362C86.1028 30.6362 86.418 30.4711 86.418 29.0861C86.418 28.4206 85.6677 22.7358 85.4946 22.1606C85.3561 21.7005 84.9571 21.5487 84.775 21.5303C84.1993 21.5303 84.0915 22.8613 84.1095 23.5268C84.1095 25.3772 84.1825 27.0815 84.3286 28.6397Z" fill="#17120F"/>
<path d="M94.6008 16.1587H94.1545C92.6774 16.4238 91.9389 17.6087 91.9389 19.7134V20.6061V21.0525L92.158 22.6026V23.0489L89.7152 22.8298C89.5664 22.8764 89.2688 23.1772 89.2688 24.0075C89.2688 24.8378 89.5664 25.0454 89.7152 25.0454H92.3771V29.0465C92.3756 29.6753 92.5573 30.9329 93.296 30.9329C94.0347 30.9329 94.2194 30.4712 94.2194 29.5478C94.2194 27.2394 94.1545 26.5171 94.1545 25.0454H95.7127C96.3099 25.0454 97.1902 25.0025 98.3534 24.9166C99.0605 24.8645 99.7481 24.4463 99.8682 23.7475C99.8807 23.6749 99.8878 23.6067 99.8878 23.5458C99.8878 23.1764 99.2722 22.9146 98.9644 22.8298H93.9353V19.8522C93.9353 18.4672 94.3979 18.0055 94.8091 18.0055C94.9943 18.0055 95.23 17.9442 95.7325 18.9289C96.3606 20.1597 96.5973 20.6061 97.0437 20.6061C97.3412 20.6061 97.49 20.4573 97.49 20.1597C96.6559 16.1587 95.1202 16.1916 94.6008 16.1587Z" fill="#17120F"/>
</svg>
