<svg width="24" height="24" viewBox="0 0 24 24" fill="none" xmlns="http://www.w3.org/2000/svg">
<path d="M2.11874 3.37683C2.08535 2.82938 2.49913 2.35719 3.04623 2.31844L19.681 1.1402C20.2358 1.10091 20.716 1.52173 20.7498 2.07681L21.8813 20.6232C21.9147 21.1706 21.5009 21.6428 20.9538 21.6816L4.31896 22.8598C3.76424 22.8991 3.28403 22.4783 3.25016 21.9232L2.11874 3.37683Z" stroke="#1A1515" stroke-width="2" stroke-linecap="round" stroke-linejoin="round"/>
<path d="M6.15569 7.83482C6.11197 7.28024 6.52926 6.79659 7.08426 6.75858L16.2184 6.13294C16.7654 6.09547 17.2406 6.50544 17.2836 7.05202L17.8443 14.1652C17.888 14.7198 17.4707 15.2034 16.9157 15.2414L7.7816 15.8671C7.2346 15.9045 6.75944 15.4946 6.71636 14.948L6.15569 7.83482Z" stroke="#1A1515" stroke-width="2" stroke-linecap="round" stroke-linejoin="round"/>
</svg>
