<svg width="175" height="184" viewBox="0 0 175 184" fill="none" xmlns="http://www.w3.org/2000/svg">
<path d="M103.52 68.0518L106.344 71.2369L89.3356 75.7944L87.191 67.7906L104.2 63.2331L103.346 67.4038L103.271 67.7712L103.52 68.0518Z" fill="#F4F4F4" stroke="#17120F" stroke-width="1.5"/>
<mask id="path-2-inside-1" fill="white">
<rect x="80.7979" y="85.1909" width="51.3774" height="61.1636" rx="1" transform="rotate(-1.25127 80.7979 85.1909)"/>
</mask>
<rect x="80.7979" y="85.1909" width="51.3774" height="61.1636" rx="1" transform="rotate(-1.25127 80.7979 85.1909)" fill="#F4F4F4" stroke="#17120F" stroke-width="3" mask="url(#path-2-inside-1)"/>
<rect x="87.8121" y="91.9057" width="37.6447" height="33.9749" rx="1.25" transform="rotate(-1.25127 87.8121 91.9057)" fill="#F4F4F4" stroke="#17120F" stroke-width="1.5"/>
<path d="M10.9986 71.7429L81.7133 52.795C85.5809 51.7587 89.5563 54.0539 90.5927 57.9215L115.896 152.354C116.932 156.222 114.637 160.198 110.769 161.234L40.0547 180.182L10.9986 71.7429Z" fill="#CCCCCC" stroke="#17120F" stroke-width="1.5"/>
<path d="M21.9185 87.0369C20.8694 83.1215 16.8448 80.7979 12.9294 81.847C9.01394 82.8962 6.69034 86.9208 7.73948 90.8362C8.78862 94.7516 12.8132 97.0752 16.7286 96.0261" stroke="#17120F" stroke-width="1.5"/>
<path d="M26.984 105.942C25.9348 102.027 21.9102 99.7033 17.9948 100.752C14.0794 101.802 11.7558 105.826 12.8049 109.742C13.854 113.657 17.8786 115.981 21.7941 114.932" stroke="#17120F" stroke-width="1.5"/>
<path d="M32.0494 124.848C31.0003 120.932 26.9757 118.609 23.0602 119.658C19.1448 120.707 16.8212 124.732 17.8703 128.647C18.9195 132.562 22.9441 134.886 26.8595 133.837" stroke="#17120F" stroke-width="1.5"/>
<path d="M37.1158 143.753C36.0667 139.838 32.0421 137.514 28.1266 138.563C24.2112 139.613 21.8876 143.637 22.9367 147.553C23.9859 151.468 28.0105 153.792 31.9259 152.743" stroke="#17120F" stroke-width="1.5"/>
<path d="M42.1812 162.659C41.1321 158.743 37.1075 156.42 33.1921 157.469C29.2766 158.518 26.953 162.542 28.0022 166.458C29.0513 170.373 33.0759 172.697 36.9913 171.648" stroke="#17120F" stroke-width="1.5"/>
<rect x="29.61" y="84.4861" width="49.8774" height="24.1887" rx="1.25" transform="rotate(-15 29.61 84.4861)" fill="#F4F4F4" stroke="#17120F" stroke-width="1.5"/>
<line x1="42.3821" y1="99.0986" x2="73.1034" y2="90.8668" stroke="#17120F" stroke-width="1.5"/>
<mask id="path-12-inside-2" fill="white">
<rect x="62.5781" y="87.5397" width="51.3774" height="61.1636" rx="1" transform="rotate(-15 62.5781 87.5397)"/>
</mask>
<rect x="62.5781" y="87.5397" width="51.3774" height="61.1636" rx="1" transform="rotate(-15 62.5781 87.5397)" fill="#F4F4F4" stroke="#17120F" stroke-width="3" mask="url(#path-12-inside-2)"/>
<mask id="mask0" mask-type="alpha" maskUnits="userSpaceOnUse" x="70" y="82" width="47" height="44">
<rect x="70.9322" y="92.4397" width="37.6447" height="33.9021" rx="1.25" transform="rotate(-15 70.9322 92.4397)" fill="#B7CDCF" stroke="black" stroke-width="1.5"/>
</mask>
<g mask="url(#mask0)">
<rect x="69.416" y="90.7992" width="39.1447" height="38.5176" rx="2" transform="rotate(-15 69.416 90.7992)" fill="#B7CDCF"/>
<path d="M101.011 102.651C108.852 95.9297 120.468 95.0555 123.416 95.9295L126.949 107.482L91.6218 116.544L89.2482 108.812C90.6929 108.493 93.2233 109.326 101.011 102.651Z" fill="#D1BFA1" stroke="#17120F" stroke-width="1.5"/>
<path d="M98.7699 108.622C85.3271 106.83 76.3651 111.983 73.5645 114.784L77.4854 129.347L123.975 117.024L121.175 109.183C119.308 109.743 112.213 110.415 98.7699 108.622Z" fill="#687A9E" stroke="#17120F" stroke-width="1.5"/>
</g>
<rect x="70.9879" y="92.3951" width="37.6447" height="33.9749" rx="1.25" transform="rotate(-15 70.9879 92.3951)" stroke="#17120F" stroke-width="1.5"/>
<path d="M129.923 70.5956L134.869 67.4912L169.705 122.995C169.778 123.112 169.743 123.266 169.626 123.339L165.103 126.178C164.986 126.251 164.832 126.216 164.758 126.099L129.923 70.5956Z" fill="#555555" stroke="#17120F" stroke-width="1.5"/>
<line x1="160.74" y1="118.806" x2="165.92" y2="115.555" stroke="#17120F" stroke-width="1.5"/>
<line x1="158.789" y1="115.698" x2="163.969" y2="112.447" stroke="#17120F" stroke-width="1.5"/>
<path d="M129.999 70.5L127.346 61.6567L124.636 57.1412L124.843 57.0112L128.16 61.1458L134.499 67.5" stroke="#17120F" stroke-width="1.5"/>
<path d="M59.3949 138.5L61.7752 137.862C61.8096 137.853 61.8695 137.848 61.9736 137.88C62.0818 137.914 62.2092 137.978 62.3526 138.073C62.9468 138.465 63.7027 138.612 64.4464 138.413C65.1901 138.213 65.7712 137.708 66.0897 137.071C66.1665 136.918 66.2447 136.798 66.3217 136.715C66.3958 136.635 66.45 136.609 66.4844 136.6L69.6626 135.749C69.796 135.713 69.9331 135.792 69.9688 135.925L70.5038 137.922C70.513 137.956 70.5176 138.016 70.4855 138.12C70.4522 138.229 70.3878 138.356 70.2931 138.499C69.9008 139.094 69.7538 139.849 69.9531 140.593C70.1524 141.337 70.6576 141.918 71.2945 142.236C71.4481 142.313 71.5677 142.391 71.6506 142.468C71.7304 142.543 71.7564 142.597 71.7656 142.631L72.4034 145.011C72.4126 145.046 72.4172 145.106 72.3852 145.21C72.3519 145.318 72.2874 145.446 72.1928 145.589C71.8004 146.183 71.6535 146.939 71.8527 147.683C72.052 148.426 72.5572 149.007 73.1941 149.326C73.3477 149.403 73.4673 149.481 73.5502 149.558C73.6301 149.632 73.656 149.686 73.6652 149.721L74.3031 152.101C74.3123 152.135 74.3169 152.195 74.2848 152.299C74.2515 152.408 74.187 152.535 74.0924 152.678C73.7001 153.273 73.5531 154.028 73.7524 154.772C73.9517 155.516 74.4568 156.097 75.0937 156.415C75.2474 156.492 75.3669 156.57 75.4498 156.647C75.5297 156.722 75.5557 156.776 75.5649 156.81L76.4165 159.988C76.4522 160.122 76.3731 160.259 76.2397 160.295L73.0615 161.146C73.0271 161.155 72.9672 161.16 72.863 161.128C72.7549 161.095 72.6274 161.03 72.4841 160.936C71.8898 160.543 71.134 160.396 70.3903 160.596C69.6466 160.795 69.0655 161.3 68.747 161.937C68.6702 162.091 68.592 162.21 68.515 162.293C68.4408 162.373 68.3867 162.399 68.3523 162.408L65.972 163.046C65.9375 163.055 65.8777 163.06 65.7735 163.028C65.6654 162.994 65.5379 162.93 65.3945 162.835C64.8003 162.443 64.0445 162.296 63.3007 162.495C62.557 162.694 61.9759 163.2 61.6575 163.837C61.5806 163.99 61.5025 164.11 61.4255 164.193C61.3513 164.272 61.2972 164.298 61.2627 164.308L58.8824 164.945C58.848 164.955 58.7881 164.959 58.684 164.927C58.5758 164.894 58.4484 164.829 58.305 164.735C57.7108 164.342 56.9549 164.196 56.2112 164.395C55.4675 164.594 54.8864 165.099 54.5679 165.736C54.4911 165.89 54.413 166.009 54.3359 166.092C54.2618 166.172 54.2076 166.198 54.1732 166.207L52.1766 166.742C52.0432 166.778 51.9061 166.699 51.8704 166.566L51.0188 163.387C51.0096 163.353 51.005 163.293 51.0371 163.189C51.0704 163.081 51.1348 162.953 51.2295 162.81C51.6218 162.216 51.7688 161.46 51.5695 160.716C51.3702 159.972 50.865 159.391 50.2281 159.073C50.0745 158.996 49.9549 158.918 49.872 158.841C49.7922 158.767 49.7662 158.713 49.757 158.678L49.1192 156.298C49.1099 156.263 49.1054 156.203 49.1374 156.099C49.1707 155.991 49.2352 155.864 49.3298 155.72C49.7222 155.126 49.8691 154.37 49.6698 153.627C49.4706 152.883 48.9654 152.302 48.3285 151.983C48.1748 151.906 48.0553 151.828 47.9724 151.751C47.8925 151.677 47.8666 151.623 47.8573 151.589L47.2195 149.208C47.2103 149.174 47.2057 149.114 47.2378 149.01C47.2711 148.902 47.3356 148.774 47.4302 148.631C47.8225 148.037 47.9695 147.281 47.7702 146.537C47.5709 145.793 47.0658 145.212 46.4289 144.894C46.2752 144.817 46.1556 144.739 46.0727 144.662C45.9929 144.588 45.9669 144.533 45.9577 144.499L45.4227 142.502C45.387 142.369 45.4661 142.232 45.5995 142.196L47.5961 141.661C47.6305 141.652 47.6904 141.647 47.7946 141.679C47.9027 141.713 48.0302 141.777 48.1735 141.872C48.7678 142.264 49.5236 142.411 50.2673 142.212C51.011 142.013 51.5921 141.507 51.9106 140.871C51.9874 140.717 52.0656 140.597 52.1426 140.514C52.2168 140.435 52.2709 140.409 52.3053 140.399L54.6856 139.762C54.7201 139.752 54.7799 139.748 54.8841 139.78C54.9922 139.813 55.1197 139.878 55.2631 139.972C55.8573 140.365 56.6132 140.512 57.3569 140.312C58.1006 140.113 58.6817 139.608 59.0001 138.971C59.077 138.817 59.1551 138.698 59.2321 138.615C59.3063 138.535 59.3604 138.509 59.3949 138.5Z" fill="#F4F4F4" stroke="#17120F" stroke-width="1.5"/>
<line x1="55.219" y1="158.329" x2="64.6717" y2="155.796" stroke="#17120F" stroke-width="1.5"/>
<rect x="52.8482" y="146.586" width="13.1793" height="7.0629" transform="rotate(-15 52.8482 146.586)" fill="#F3E2C6" stroke="#17120F" stroke-width="1.5"/>
<mask id="path-25-inside-3" fill="white">
<path fill-rule="evenodd" clip-rule="evenodd" d="M96.0646 4.83794C97.3744 4.20042 99.1019 4.03777 100.855 4.50744C103.228 5.14329 104.981 6.75956 105.467 8.53126C106.401 8.37762 107.394 8.41702 108.384 8.68232C111.298 9.4629 113.257 11.9507 113.3 14.6242C116.638 15.9404 119 19.1944 119 23C119 26.6244 116.858 29.7484 113.77 31.1747C112.503 38.4604 106.148 44 98.5 44C94.923 44 91.629 42.7883 89.006 40.753C87.636 42.1349 85.6762 43 83.5 43C80.1008 43 77.2298 40.8894 76.3092 37.9957C76.2065 37.9986 76.1034 38 76 38C69.9249 38 65 33.0751 65 27C65 23.5265 66.61 20.429 69.1244 18.4131C69.0427 17.9544 69 17.4822 69 17C69 12.5817 72.5817 9 77 9C77.3018 9 77.5998 9.01672 77.8929 9.04928C79.6326 4.90814 83.7267 2 88.5 2C91.3963 2 94.0426 3.07073 96.0646 4.83794Z"/>
</mask>
<path fill-rule="evenodd" clip-rule="evenodd" d="M96.0646 4.83794C97.3744 4.20042 99.1019 4.03777 100.855 4.50744C103.228 5.14329 104.981 6.75956 105.467 8.53126C106.401 8.37762 107.394 8.41702 108.384 8.68232C111.298 9.4629 113.257 11.9507 113.3 14.6242C116.638 15.9404 119 19.1944 119 23C119 26.6244 116.858 29.7484 113.77 31.1747C112.503 38.4604 106.148 44 98.5 44C94.923 44 91.629 42.7883 89.006 40.753C87.636 42.1349 85.6762 43 83.5 43C80.1008 43 77.2298 40.8894 76.3092 37.9957C76.2065 37.9986 76.1034 38 76 38C69.9249 38 65 33.0751 65 27C65 23.5265 66.61 20.429 69.1244 18.4131C69.0427 17.9544 69 17.4822 69 17C69 12.5817 72.5817 9 77 9C77.3018 9 77.5998 9.01672 77.8929 9.04928C79.6326 4.90814 83.7267 2 88.5 2C91.3963 2 94.0426 3.07073 96.0646 4.83794Z" fill="#F4F4F4"/>
<path d="M100.855 4.50744L100.467 5.95633L100.467 5.95633L100.855 4.50744ZM96.0646 4.83794L95.0774 5.96736C95.5314 6.36415 96.1789 6.45055 96.721 6.18668L96.0646 4.83794ZM105.467 8.53126L104.021 8.92809C104.224 9.66849 104.953 10.136 105.711 10.0114L105.467 8.53126ZM108.384 8.68232L108.773 7.23344L108.773 7.23344L108.384 8.68232ZM113.3 14.6242L111.8 14.6486C111.81 15.2557 112.185 15.7969 112.75 16.0197L113.3 14.6242ZM113.77 31.1747L113.141 29.813C112.694 30.0195 112.377 30.4324 112.292 30.9176L113.77 31.1747ZM89.006 40.753L89.9256 39.568C89.3265 39.1031 88.4747 39.1585 87.9408 39.697L89.006 40.753ZM76.3092 37.9957L77.7386 37.541C77.536 36.9039 76.9361 36.4779 76.2679 36.4963L76.3092 37.9957ZM69.1244 18.4131L70.0627 19.5834C70.4909 19.2401 70.6974 18.6903 70.6011 18.1499L69.1244 18.4131ZM77.8929 9.04928L77.7274 10.5401C78.3881 10.6135 79.0184 10.2432 79.2759 9.63024L77.8929 9.04928ZM101.243 3.05855C99.1837 2.50677 97.0803 2.67536 95.4081 3.48921L96.721 6.18668C97.6686 5.72547 99.0201 5.56877 100.467 5.95633L101.243 3.05855ZM106.914 8.13444C106.253 5.72785 103.996 3.79634 101.243 3.05855L100.467 5.95633C102.459 6.49025 103.709 7.79127 104.021 8.92809L106.914 8.13444ZM108.773 7.23344C107.575 6.91257 106.366 6.86314 105.224 7.05116L105.711 10.0114C106.436 9.89211 107.213 9.92147 107.996 10.1312L108.773 7.23344ZM114.8 14.5999C114.745 11.2034 112.28 8.17323 108.773 7.23344L107.996 10.1312C110.315 10.7526 111.768 12.698 111.8 14.6486L114.8 14.5999ZM112.75 16.0197C115.534 17.1175 117.5 19.831 117.5 23H120.5C120.5 18.5577 117.742 14.7633 113.85 13.2288L112.75 16.0197ZM117.5 23C117.5 26.018 115.717 28.6228 113.141 29.813L114.399 32.5364C117.998 30.874 120.5 27.2307 120.5 23H117.5ZM98.5 45.5C106.89 45.5 113.858 39.4236 115.248 31.4317L112.292 30.9176C111.148 37.4973 105.407 42.5 98.5 42.5V45.5ZM88.0865 41.9381C90.9632 44.1703 94.5784 45.5 98.5 45.5V42.5C95.2676 42.5 92.2948 41.4063 89.9256 39.568L88.0865 41.9381ZM83.5 44.5C86.0765 44.5 88.4197 43.4749 90.0712 41.8091L87.9408 39.697C86.8523 40.7948 85.276 41.5 83.5 41.5V44.5ZM74.8798 38.4505C76.0102 42.0038 79.4874 44.5 83.5 44.5V41.5C80.7142 41.5 78.4493 39.775 77.7386 37.541L74.8798 38.4505ZM76 39.5C76.1172 39.5 76.2341 39.4984 76.3506 39.4952L76.2679 36.4963C76.1789 36.4988 76.0896 36.5 76 36.5V39.5ZM63.5 27C63.5 33.9036 69.0964 39.5 76 39.5V36.5C70.7533 36.5 66.5 32.2467 66.5 27H63.5ZM68.1861 17.2428C65.3319 19.5312 63.5 23.0522 63.5 27H66.5C66.5 24.0008 67.8881 21.3269 70.0627 19.5834L68.1861 17.2428ZM67.5 17C67.5 17.5708 67.5505 18.1311 67.6477 18.6763L70.6011 18.1499C70.5348 17.7777 70.5 17.3935 70.5 17H67.5ZM77 7.5C71.7533 7.5 67.5 11.7533 67.5 17H70.5C70.5 13.4101 73.4101 10.5 77 10.5V7.5ZM78.0585 7.55844C77.7105 7.51979 77.3573 7.5 77 7.5V10.5C77.2464 10.5 77.4891 10.5136 77.7274 10.5401L78.0585 7.55844ZM88.5 0.5C83.1017 0.5 78.4754 3.78997 76.51 8.46831L79.2759 9.63024C80.7899 6.0263 84.3517 3.5 88.5 3.5V0.5ZM97.0517 3.70853C94.7669 1.71154 91.7731 0.5 88.5 0.5V3.5C91.0196 3.5 93.3184 4.42991 95.0774 5.96736L97.0517 3.70853Z" fill="#17120F" mask="url(#path-25-inside-3)"/>
<circle cx="109.5" cy="48.5" r="2.5" fill="#F4F4F4" stroke="#17120F" stroke-width="1.5" stroke-linejoin="round"/>
<path d="M85.0413 16.8637C85.6512 16.8637 85.9341 17.6266 85.9341 18.422C85.9341 18.7195 85.7853 18.8683 85.4877 18.8683H84.8222C84.5246 18.8683 84.3759 18.7195 84.3759 18.422V17.5292C84.3759 17.3182 84.595 16.8637 85.0413 16.8637ZM84.595 28.6397C84.595 29.9706 85.0413 30.6361 85.9341 30.6361C86.3691 30.6361 86.6843 30.4711 86.6843 29.086C86.6843 28.4205 85.9341 22.7358 85.7609 22.1606C85.6224 21.7004 85.2235 21.5486 85.0413 21.5303C84.4657 21.5303 84.3578 22.8613 84.3759 23.5267C84.3759 25.3771 84.4489 27.0814 84.595 28.6397Z" fill="#17120F"/>
<path d="M85.0413 16.8637C85.6512 16.8637 85.9341 17.6266 85.9341 18.422C85.9341 18.7195 85.7853 18.8683 85.4877 18.8683H84.8222C84.5246 18.8683 84.3759 18.7195 84.3759 18.422V17.5292C84.3759 17.3182 84.595 16.8637 85.0413 16.8637ZM84.595 28.6397C84.595 29.9706 85.0413 30.6361 85.9341 30.6361C86.3691 30.6361 86.6843 30.4711 86.6843 29.086C86.6843 28.4205 85.9341 22.7358 85.7609 22.1606C85.6224 21.7004 85.2235 21.5486 85.0413 21.5303C84.4657 21.5303 84.3578 22.8613 84.3759 23.5267C84.3759 25.3771 84.4489 27.0814 84.595 28.6397Z" stroke="#17120F"/>
<path d="M94.8672 16.1586H94.4208C92.9438 16.4237 92.2052 17.6086 92.2052 19.7133V20.606V21.0524L92.4244 22.6025V23.0488L89.9815 22.8297C89.8327 22.8763 89.5352 23.177 89.5352 24.0074C89.5352 24.8377 89.8327 25.0453 89.9815 25.0453H92.6435V29.0463C92.642 29.6752 92.8236 30.9328 93.5624 30.9328C94.3011 30.9328 94.4857 30.4711 94.4857 29.5477C94.4857 28.2641 94.4657 27.4709 94.4479 26.7666C94.4336 26.2043 94.4208 25.6986 94.4208 25.0453H95.979C96.5763 25.0453 97.4565 25.0024 98.6198 24.9165C99.3269 24.8643 100.014 24.4462 100.135 23.7474C100.147 23.6748 100.154 23.6066 100.154 23.5457C100.154 23.1763 99.5385 22.9145 99.2307 22.8297H94.2017V19.8521C94.2017 18.467 94.6643 18.0053 95.0755 18.0053C95.0856 18.0053 95.0958 18.0052 95.1062 18.005C95.2871 18.0018 95.5237 17.9976 95.9989 18.9287C96.627 20.1596 96.8637 20.606 97.31 20.606C97.6076 20.606 97.7564 20.4572 97.7564 20.1596C96.9467 16.2759 95.476 16.193 94.9154 16.1614C94.8985 16.1604 94.8824 16.1595 94.8672 16.1586Z" fill="#17120F"/>
<path d="M94.8672 16.1586H94.4208C92.9438 16.4237 92.2052 17.6086 92.2052 19.7133V20.606V21.0524L92.4244 22.6025V23.0488L89.9815 22.8297C89.8327 22.8763 89.5352 23.177 89.5352 24.0074C89.5352 24.8377 89.8327 25.0453 89.9815 25.0453H92.6435V29.0463C92.642 29.6752 92.8236 30.9328 93.5624 30.9328C94.3011 30.9328 94.4857 30.4711 94.4857 29.5477C94.4857 28.2641 94.4657 27.4709 94.4479 26.7666C94.4336 26.2043 94.4208 25.6986 94.4208 25.0453H95.979C96.5763 25.0453 97.4565 25.0024 98.6198 24.9165C99.3269 24.8643 100.014 24.4462 100.135 23.7474C100.147 23.6748 100.154 23.6066 100.154 23.5457C100.154 23.1763 99.5385 22.9145 99.2307 22.8297H94.2017V19.8521C94.2017 18.467 94.6643 18.0053 95.0755 18.0053C95.0856 18.0053 95.0958 18.0052 95.1062 18.005C95.2871 18.0018 95.5237 17.9976 95.9989 18.9287C96.627 20.1596 96.8637 20.606 97.31 20.606C97.6076 20.606 97.7564 20.4572 97.7564 20.1596C96.9467 16.2759 95.476 16.193 94.9154 16.1614C94.8985 16.1604 94.8824 16.1595 94.8672 16.1586Z" stroke="#17120F"/>
</svg>
