<svg width="24" height="24" viewBox="0 0 24 24" fill="none" xmlns="http://www.w3.org/2000/svg">
<path d="M13.1332 15.6453C13.0594 14.5528 13.8778 13.6041 14.9693 13.5169L19.4192 13.1613C20.5299 13.0725 21.4989 13.9085 21.574 15.0201L21.8668 19.3547C21.9406 20.4472 21.1222 21.3959 20.0307 21.4831L15.5808 21.8387C14.4701 21.9275 13.5011 21.0915 13.426 19.9799L13.1332 15.6453Z" stroke="#1A1515" stroke-width="2" stroke-linecap="round" stroke-linejoin="round"/>
<path d="M2.13317 15.6453C2.05936 14.5528 2.8778 13.6041 3.96931 13.5169L8.41922 13.1613C9.52985 13.0725 10.4989 13.9085 10.574 15.0201L10.8668 19.3547C10.9406 20.4472 10.1222 21.3959 9.03069 21.4831L4.58078 21.8387C3.47015 21.9275 2.50112 21.0915 2.42602 19.9799L2.13317 15.6453Z" stroke="#1A1515" stroke-width="2" stroke-linecap="round" stroke-linejoin="round"/>
<path d="M13.1332 4.64534C13.0594 3.55284 13.8778 2.6041 14.9693 2.51688L19.4192 2.16128C20.5299 2.07253 21.4989 2.90847 21.574 4.02011L21.8668 8.35466C21.9406 9.44716 21.1222 10.3959 20.0307 10.4831L15.5808 10.8387C14.4701 10.9275 13.5011 10.0915 13.426 8.97989L13.1332 4.64534Z" stroke="#1A1515" stroke-width="2" stroke-linecap="round" stroke-linejoin="round"/>
<path d="M2.13317 4.64534C2.05936 3.55284 2.8778 2.6041 3.96931 2.51688L8.41922 2.16128C9.52985 2.07253 10.4989 2.90847 10.574 4.02011L10.8668 8.35466C10.9406 9.44716 10.1222 10.3959 9.03069 10.4831L4.58078 10.8387C3.47015 10.9275 2.50112 10.0915 2.42602 8.97989L2.13317 4.64534Z" stroke="#1A1515" stroke-width="2" stroke-linecap="round" stroke-linejoin="round"/>
</svg>
