<svg width="26" height="26" viewBox="0 0 26 26" fill="none" xmlns="http://www.w3.org/2000/svg">
<path fill-rule="evenodd" clip-rule="evenodd" d="M11.9548 24.7492C12.0004 25.2996 12.4835 25.7089 13.0339 25.6633C13.5843 25.6177 13.9936 25.1346 13.948 24.5842L12.9842 12.9435L24.753 11.9216C25.3032 11.8738 25.7106 11.3891 25.6628 10.8388C25.615 10.2886 25.1302 9.88132 24.58 9.92909L12.8191 10.9503L12.0161 1.25088C11.9705 0.700482 11.4873 0.291238 10.9369 0.336809C10.3865 0.382381 9.9773 0.865513 10.0229 1.41591L10.8266 11.1233L1.24681 11.955C0.696595 12.0028 0.289286 12.4876 0.33706 13.0378C0.384833 13.588 0.869598 13.9953 1.41981 13.9476L10.9917 13.1165L11.9548 24.7492Z" fill="#1A1515"/>
</svg>
