<svg width="24" height="24" viewBox="0 0 24 24" fill="none" xmlns="http://www.w3.org/2000/svg">
<path d="M15.5034 11.0946C18.3263 12.9514 20.7022 15.5644 21.6562 19.0594C21.7591 19.4363 21.4982 19.9266 20.9106 20.0072L3.34271 22.4165C2.68016 22.5074 2.21672 21.974 2.30903 21.4373C2.661 19.3909 3.23919 17.2341 4.00454 15.3755C4.78102 13.4899 5.70259 12.029 6.6773 11.2464C9.18717 9.23124 12.728 9.26906 15.5034 11.0946Z" stroke="#1A1515" stroke-width="2" stroke-linecap="round" stroke-linejoin="round"/>
<path d="M14 5C14 5.86197 13.6391 6.90685 13.0258 7.73188C12.4052 8.56691 11.6682 9 11 9C10.2704 9 9.26034 8.50298 8.37868 7.62132C7.49702 6.73966 7 5.72959 7 5C7 4.33183 7.43309 3.59482 8.26812 2.97415C9.09315 2.36092 10.138 2 11 2C12.6569 2 14 3.34315 14 5Z" stroke="#1A1515" stroke-width="2"/>
</svg>
